<svg id="5ce8f260-dce6-4b42-8d53-52098d19f993" data-name="Calque 2" xmlns="http://www.w3.org/2000/svg" viewBox="0 0 212.00438 66.9549"><defs><style>.\37 d228dab-ba4e-4164-a80e-17fa85d7a0f2{fill:#fff;}</style></defs><title>lac</title><g id="094a0447-b022-49c2-8457-7b90392ce8ec" data-name="44"><path class="7d228dab-ba4e-4164-a80e-17fa85d7a0f2" d="M15.41817,31.58054c.04815-2.46406-.40177-1.25451-.00239.48741.07809.34057.83468.10485.82142-.2201-.18107-4.43762.32473,1.28615.38115,1.79.03465.30948.80973.12337.82369-.15293.02709-.53613.62573-3.63173-.3037-3.2512-.11949.04893.43633,4.90349.44982,5.15124.01662.305.80367.12495.8237-.15292.12874-1.78624-.08751-4.38053.30279-6.00944-.13153.54894.40753,3.41227.45547,4.57851.013.31483.78251.11064.8237-.15293.22237-1.423-.1034-5.51506.62029-6.59917-.79585,1.19221-.33951,4.71205-.21808,6.69367.15053,2.45636.255,1.88539.7012-.25182.41034-1.96523-.231-5.152.67482-6.92126-.47506.92791.32147,4.42264.20719,6.11925-.05121.76023-1.19472,4.11006.3374,2.8264.67706-.56727.6673-6.403.64135-7.39873-.10923-4.192-.00241-.1728.10789,1.14641a41.17024,41.17024,0,0,1,.18129,4.66174q-.97708,2.39613.44179,1.75924c-2.08-1.86489,1.64585-7.31341.60251-9.288a25.87048,25.87048,0,0,1,.21108,3.7801c.07038,1.29589-.54277,8.62252.8832,3.59361.59694-2.1052.30815-4.9439.44472-7.13511.05111-.82.95027-4.15538-.34749-3.26539-.74527.5111.34065,8.63268.34495,9.61644.01131,2.58569-.05895,5.16734-.16178,7.75064-.0151.37922.78391.22463.826-.08576.61153-4.51338,1.06674-9.03608,1.26221-13.588.01962-.45686.47482-5.59634.13213-5.84894-1.09234-.80517-.31021,3.03705-.269,3.63872A77.52083,77.52083,0,0,1,27.255,39.337c-.03725.31141-.96123,5.29631-.83271,5.40152.70695.57867.95941-4.42312,1.01093-4.995q.55956-6.21246,1.31421-12.40538a43.84614,43.84614,0,0,0,.73923-5.71014c-.091-4.2179-.42253-.45845-.48972,1.1542-.35341,8.48336-1.00875,17.0167-.7531,25.5086.01147.3809.78273.226.826-.08576,1.56825-11.30716,3.71314-22.273,1.64951-33.64465-.05855-.3226-.88313-.11992-.82142.2201A55.65178,55.65178,0,0,1,30.65,30.52808c-.49025,4.79634-2.31634,10.29009-2.03329,15.07407.16193,2.73706.41246-2.91517.43356-3.7566.06242-2.48882.18217-4.97631.28579-7.46366l.68966-16.55446c.01582-.37966-.7813-.22371-.826.08575q-2.0574,14.25495-3.13932,28.61115c-.02876.38146.76483.21593.826-.08576a83.09248,83.09248,0,0,0,.98714-27.24246c-.03916-.30637-.82522-.12661-.8237.15293.01775,3.25159-.03289,6.50011-.22014,9.747-.073,1.26679-.61267,9.67035-.5811,9.66272,1.4696-.35545.062-15.52552-.08687-17.54264-.02264-.30674-.8064-.12447-.82369.15292L24.33743,37.423c-.02337.37493.80111.22962.826-.08575a56.36413,56.36413,0,0,0-.437-12.83782c-.05009-.339-.76565-.09-.82369.15292a37.88433,37.88433,0,0,0-.83533,13.12193c.0332.31077.80525.12173.82369-.15293A57.91055,57.91055,0,0,0,23.2764,24.35c-.05082-.31546-.80017-.11845-.82369.15293L21.33033,37.45069c-.03257.3757.77627.2236.826-.08575.69428-4.3223,1.16-8.37613-.21782-12.59282-.09915-.30345-.796-.13051-.82369.15293L19.93385,37.03726c-.03656.37495.773.22267.826-.08576a30.81936,30.81936,0,0,0-.162-11.62839c-.06148-.30663-.82605-.12626-.82369.15293.0169,2.00252.30487,4.69665-.35018,6.619q1.31187-.00169.30988-1.6764a19.74364,19.74364,0,0,0-.76014-3.08047c-.08858-.30558-.80341-.12841-.82369.15293-.04649.64506-.49973,6.02408-.12866,5.91106.69608-.212-.18547-4.19471-.32345-5.09275-.04786-.31147-.80978-.12238-.82369.15292-.0342.67662.08085,3.55374.09818,3.30038a12.97588,12.97588,0,0,0-.46194-3.5693c-.0802-.32692-.77362-.10736-.82369.15293-.54961,2.857.22557,2.08461-.2124.17442-.07034-.30678-.81823-.12666-.82369.15292L14.5922,31.6663c-.0074.379.81985.22728.826-.08576Z" transform="translate(0.14641 -7.66908)"/></g><g id="771c4114-d088-4941-80c5-9f1d5521f4f1" data-name="43"><path class="7d228dab-ba4e-4164-a80e-17fa85d7a0f2" d="M30.32339,14.34707a171.4033,171.4033,0,0,0-.82254,33.21807c.0261.36243.76985.12431.8255-.14615A108.97376,108.97376,0,0,0,32.23982,16.9196c-.02553-.33068-.82863-.16414-.8255.14615q.13905,13.80588-.92033,27.56243c-.03152.40943.77384.26554.82959-.0722.8392-5.0834,1.51991-10.186,1.95441-15.321q.24423-2.88636.40058-5.77951.1032-1.92852.16591-3.85878-1.65568-.36735-.822,1.85655c-1.106,3.88076-1.38838,8.8814-1.7945,12.94466a71.53524,71.53524,0,0,0,.3135,13.654c.03289.36213.77206.12671.82551-.14616a142.6625,142.6625,0,0,0,2.64332-30.2742c-.00792-.41166-.784-.27068-.82959.07221-1.27121,9.55883-2.42468,19.08152-1.919,28.742.02207.42166.75349.25794.82959-.07221.4081-1.77036,4.37975-27.23437,3.01861-27.22781-1.54153.00744-.40142,6.09384-.3874,7.55912.0178,1.86016-.00589,3.72215-.15094,5.57769-.34138,4.367-1.6592,8.52635-.9144,12.90686.05992.35246.78709.14309.8255-.14615.84672-6.37619,1.4822-12.774,1.82708-19.19792.15971-2.97495-.07219-9.43375.09058-2.13979a59.90038,59.90038,0,0,1-.93273,10.20536c-.172,1.14418-1.46708,8.45709-.765,8.4498.70027-.00727,1.4111-6.47514,1.62988-7.60369,1.04535-5.39245,1.90209-10.50781.44852-15.88937-.09059-.33538-.80265-.16082-.82551.14616A91.63746,91.63746,0,0,0,38.3112,43.05075c.07147.37777.75564.11331.82551-.14615a26.03871,26.03871,0,0,0,.28142-10.5248c-.26627-2.0299-.653-4.0478-.81474-6.09086-.15892-2.00769.38466-4.41066.05663-6.348q-.30615-1.62527-.3312,1.15452-.13278,1.70013-.106,3.40524c.00028,2.45418.17084,4.91527.27455,7.36648l.66886,15.80863c.01788.4226.7534.2564.82959-.07221,2.178-9.39334,1.47552-18.83368.43256-28.32437-.03707-.33726-.81547-.15825-.82551.14615a110.07182,110.07182,0,0,0,1.50837,22.21341c.05684.33381.83495.16121.82551-.14615-.10022-3.26142-.12729-6.52116-.00851-9.78263.12409-3.40737,1.16809-7.37776.83542-10.72775-.24406-2.45755-.31989.24579-.43826,1.06624a42.36589,42.36589,0,0,0-.06281,4.88117c-.02534,1.16909-1.144,10.26426-.44737,10.72955.51776.34582.796-6.63856.88665-7.62959a51.71246,51.71246,0,0,1,1.54189-9.38182c-1.4435,5.05737-.92726,12.59591-1.15479,18.36112-.01606.40707.80707.27488.8296-.07221l.70984-10.93462c.10693-1.64717.31572-3.31863.32266-4.97028.01915-4.55664-.29562-.1527-.41538.72551-.69842,5.12142-1.98785,10.3215-.50992,15.4001.094.32288.83089.16923.82551-.14615-.02121-1.24157,1.43992-16.99593,1.4455-16.993-.54385-.28241-.63393,5.54516-.65254,6.21244l-.27883,9.99578c-.01138.40783.81813.27479.82959-.07221.08239-2.49406.20369-4.9842.4225-7.47052q.164-1.86333.38624-3.7217c.07834-.65824.29552-5.66269.51845-2.65618.3865,5.21243-.73909,10.92266-1.1377,16.13366-.03123.40828.77745.26754.82959-.0722l1.26072-8.21451c.21306-1.38819,1.9355-7.17442,1.26073-8.21451.4821.74311-.12668,6.31151-.18978,7.93336a68.97452,68.97452,0,0,1-1.13392,9.62671c-.07448.41126.733.2339.8296-.0722a51.859,51.859,0,0,0,2.35941-18.70274c-.02219-.406-.80814-.2776-.8296.07221l-1.17481,19.154c-.02615.42641.746.24145.8296-.07221,1.33893-5.0232-.422-9.75679.03765-14.81.39788-4.37427.68373.38547.83065,2.25958.3057,3.89951.41937,7.79034.41387,11.69978-.00059.41511.77349.265.82959-.07221,1.07476-6.46012.986-12.91111.77454-19.43571-.01321-.40779-.82122-.27523-.82959.07221L51.7994,49.95244c-.01032.428.74733.24419.82959-.07221,2.125-8.1731-.00618-16.44567,1.22812-24.68143.28394-1.89461.7775-5.17939.16121-.77771-.26665,1.90445-.18375,3.92623-.27346,5.84316L53.01563,45.846c-.01921.41041.78172.26834.82959-.07221.8885-6.3201,2.0754-13.03491,1.90687-19.43321.00012.00468.00614-2.87673-.44371-1.95822-.32913.672.37535,3.59541.44967,4.50934a89.83585,89.83585,0,0,1,.20438,11.68294c-.01965.40688.79982.27414.8296-.07221l1.73612-20.19406c.03748-.43591-.73228-.22226-.82959.07221-1.09888,3.3252-.76452,6.35362-.50026,9.74987A86.79925,86.79925,0,0,1,57.019,45.78c-.04121.40441.77652.26909.82959-.07221.689-4.43079,1.218-8.87648,1.49261-13.35335q.23517-3.8334.251-7.67608c.00192-.47106-.67932-5.76061-.12865-3.16892,1.7723,8.34122-1.65651,16.55521-1.00967,24.9413.02611.3385.80468.15519.82551-.14616q1.26168-18.25839,2.142-36.53912c.01956-.40629-.81285-.27562-.8296.07221C60.069,20.69319,58.785,31.67219,58.71313,42.5329c-.011,1.66641-.01726,2.51878.42193.33169.21895-1.09034.13252-2.32872.25239-3.4422.24778-2.30168.68776-4.57772.99783-6.87075.64174-4.7458.76472-9.16377-.89744-13.70682-.11255-.30761-.83585-.17964-.82551.14616.122,3.84123.13366,7.67839-.04686,11.51819C58.444,34.15728,57.28,38.393,57.58188,41.981c.16075,1.91049-.156,3.06351.61515-.19543a22.30708,22.30708,0,0,0,.1437-4.9195c-.006-3.4282-.432-6.78691-.56975-10.20392-.02149-.533-.47036-4.45665.25062-4.82094-1.05121.53115-.70056,2.93054-.79653,4.04685-.31042,3.61067-1.029,7.39555-.947,11.01494.0593,2.61819.36131,2.31919.63983-.01821a32.11522,32.11522,0,0,0-.14008-5.42816c-.17129-3.04207-.49975-6.06921-.86578-9.0932-.041-.33837-.81416-.15736-.82551.14616-.14593,3.90509-.36438,7.80421-.70985,11.6971q-.259,2.91822-.59933,5.82916c-.07623.65183-1.08927,4.1617.159,3.79023.52866-.15732.49471-10.57067.54692-11.68632l.54692-11.68632c.02055-.439-.733-.22484-.82959.0722-2.2821,7.01935-1.10019,14.0841-1.28771,21.30634-.03949,1.52095-.71274,10.0661-.19282,4.26674.36271-4.04571.19832-8.2311.29611-12.28991l.13666-5.67227c.02419-1.00376.81361-5.19181-.607-4.5956-.36823.15454-.01059,10.56105-.09972,11.69913-.11514,1.47013-.60922,3.15768.09414,3.90149-.58914-.623-.08658-4.32629-.13729-5.43711-.16659-3.64916-.49749-7.28294-.92924-10.91005-.03968-.33332-.7165-.14716-.801.07215-1.90628,4.94973-.32,9.63311-.42639,14.73645-.01.48241-.57352,3.55864.01278,2.64275.64705-1.0108.44087-2.83715.51922-4.11451.20627-3.363.975-7.19048.64615-10.5347-.18727-1.90442-.3601-.94986-.52767.64594-.14919,1.42071-.07224,2.87716-.20066,4.3059-.12868,1.43162-.31171,2.8584-.57017,4.2728-.07662.41934-1.35969,4.77114-1.19536,5.03225.34106.54194.99424-2.69249,1.0563-3.21955.18908-1.606.3255-3.21819.38828-4.83442a70.62654,70.62654,0,0,0-.36374-9.76054c-.03522-.35443-.782-.13726-.82551.14615l-1.54088,10.04a45.96912,45.96912,0,0,0-.7004,4.56361c-.15463,3.0824.21992,1.74611.5577-.19183.53189-3.05157.48465-6.33573.72107-9.42627.15258-1.99462.84059-4.251-.46022-5.90386a.51173.51173,0,0,0-.79208.21223c-.28119,1.76293-1.84036,14.88943-1.13231,14.777,1.12122-.17812.8077-14.29336.85792-16.094.01174-.42068-.75914-.25466-.82959.07221a81.76949,81.76949,0,0,0-1.60408,10.312c-.13288,1.56162.02983,11.49276-.16051,3.9959-.13359-5.26192,1.76042-10.2602,1.10239-15.5603-.04243-.34178-.806-.15378-.8255.14615l-.64531,9.94057-.32266,4.97028c-.01732.26681-.52558,4.10467.57917,3.06778.9656-.90629.26911-6.81892.325-8.23632l.39728-10.06662c.01682-.42621-.74887-.245-.8296.07221a72.08414,72.08414,0,0,0-2.19645,20.732c.01552.40733.80667.27625.82959-.07221q.70545-10.72539.62269-21.46443c-.00316-.412-.78371-.2699-.8296.07221-.56425,4.20721-.98205,8.419-1.16821,12.66144q-.12873,2.93352-.12621,5.86893c.00093,1.07936.53722,4.68559.46762,2.00245-.11891-4.58421-1.07115-9.13855-1.13163-13.76537-.01218-.932.6652-4.01707-.53713-3.52563-.21514.08794.51443,5.39342.53631,5.68365a78.93524,78.93524,0,0,1,.06562,13.176c-.03726.40372-.989,5.39569-.82285,5.58934.20494.23879.17744-3.55112.15173-4.15873-.33179-7.842-1.59594-16.25268-.05716-24.00315.07552-.38035-.70493-.26218-.80505-.0018-1.61155,4.19127-1.2418,8.27127-.62074,12.637a43.4038,43.4038,0,0,1,.723,9.0221c-.36112,5.35529-.82936-2.38022-.99042-3.81817a84.19547,84.19547,0,0,1-.50084-11.02116,29.78759,29.78759,0,0,1,.02883-3.741c-.31938.78689.316,3.63033.29143,4.82489-.1289,6.27579-2.2671,12.3401-2.64807,18.60534-.02464.40534.80344.27542.8296-.07221.65732-8.73477,3.24032-17.27553,1.59652-26.04613-.06321-.33725-.818-.159-.8255.14616-.1114,4.50082-.31739,8.9959-.66814,13.48467q-.263,3.36569-.62772,6.722c-.09886.91823-.98567,7.69763-.30274,3.00536a110.41431,110.41431,0,0,0,.897-24.178c-.02312-.32915-.83246-.16546-.8255.14615a116.8127,116.8127,0,0,1-.52429,14.628q-.28217,2.73169-.69538,5.44831c-.26286,1.72774-1.78834,5.58256-1.34679,7.19781-.262-.95859.252-4.589.28658-5.96736.04813-1.92106.15889-3.8407.303-5.75673.12353-1.642.77095-13.20187,1.22433-13.36435-.83375.2988-.62424,11.69538-.76923,13.34273q-.25029,2.84389-.61729,5.67635c-.2048,1.58041-1.76849,6.13159-1.19718,7.51788-.65681-1.59374-.13229-5.8567-.08359-7.9715a53.06068,53.06068,0,0,1,.4683-5.66681c.64925-4.96662,1.70066-9.76792,1.609-14.80553-.00743-.40834-.82015-.27476-.8296.07221-.12267,4.50637-.36573,9.004-.79294,13.49212q-.366,3.84491-.897,7.672c-.14162,1.02452-1.35947,4.05568.09729,3.68865.71688-.18062.65029-12.26819.69054-13.77538q.09205-3.44739.1018-6.896c.00915-2.77146-.71544-5.60941-.51859.87276a101.92539,101.92539,0,0,1-.46827,13.3695q-.28943,2.85361-.73292,5.68957c-.43283,2.76632-.27263,6.984-.57112-.283A167.77986,167.77986,0,0,1,31.153,14.27486c.04865-.39755-.7869-.27663-.82959.07221Z" transform="translate(0.14641 -7.66908)"/></g><g id="d4eed6eb-54c9-4822-88ef-26f71b843958" data-name="42"><path class="7d228dab-ba4e-4164-a80e-17fa85d7a0f2" d="M60.38576,9.40147l-.62053,19.12127c-.17171,5.291-.56392,10.496.91875,15.63816.11192.38814.75057.1526.8269-.14095a42.08867,42.08867,0,0,0,.9113-13.2548c-.1288-2.25335-.34216-4.50237-.41807-6.75878-.07121-2.11664.47452-4.63387.185-6.68645q1.111-2.26563-.5578-1.4377-.26052,1.79-.34428,3.59682c-.13613,2.41555-.04265,4.839.01876,7.255.134,5.27089.30541,10.54112.45811,15.81151.01247.43037.83712.30932.83238-.0618-.10827-8.48123,1.05746-16.98379.94445-25.419.10327,7.70813.25349,16.81-.71694,25.04728-.05006.42493.77321.30315.83238-.0618a136.66534,136.66534,0,0,0,1.73032-25.16876c-.01012-.431-.839-.3086-.83239.0618l.40626,22.67735c.00771.43013.80415.3107.83238-.0618l1.00266-13.23006c.18925-2.49717.55927-5.05656.57294-7.56.0261-4.78023-.26074,1.37942-.32482,2.37541-.26447,4.11079-1.18542,8.16157-1.14436,12.294.04148,4.17611,1.09556,8.23931,1.103,12.42674.00076.43055.83084.30989.83238-.0618.02134-5.13762.233-10.2633.5945-15.38812.18073-2.56233.39635-5.122.62358-7.68062.08429-.949.3289-8.93509.15463-3.86-.17411,5.07073-.13135,9.94335-.96241,14.98371-.67941,4.12066-1.49783,7.94771-.67935,12.10329.07538.38275.77363.1591.8269-.141.57768-3.254,4.772-28.18583,2.34485-28.57693,1.3473.2171-.14866,14.22461-.3988,15.6998-.69332,4.089-1.56658,7.85345-.78287,11.99.06927.36561.80091.17814.8269-.14095L71.45277,31.652l.53516-6.57014c.088-1.0802,1.14636-5.072-.3553-4.52435-.70229.25611-.38517,12.95319-.40652,13.88787a39.30808,39.30808,0,0,0,.69634,9.84091c.08816.38766.76346.15362.8269-.141a41.538,41.538,0,0,0,.5137-11.58672c-.06032-.95811.18826-14.17637-.425-14.41168-.437-.16766-.85749,11.16307-.74264,12.54127.47157,5.65877,2.04728,11.15653,1.294,16.86133-.05592.42355.76829.3016.83239-.0618C75.238,41.72623,76.3832,35.90932,76.85255,30.07a15.018,15.018,0,0,0-.26419-5.35776c-.247-.92315-.66325-1.78361-.94382-2.69569-.5631-1.83055-.19046-3.40551-.61364-5.293-.05018-.2238.30733-2.59072-.51058-1.21257-.40636.68471-.0102,2.966-.013,3.78682L74.478,27.81819l-.06191,17.98743c-.00148.43122.79864.30883.83239-.0618l1.54117-16.92565c.43351-4.761,1.24144-9.55449.2273-14.28045-.07738-.36057-.80722-.18316-.8269.141a132.11463,132.11463,0,0,0-.028,16.43615c.15372,2.41009.43789,4.80255.66563,7.20508.16489,1.73955.28156,10.062.79262,4.77473.53317-5.516.80489-10.83672,2.00588-16.28314,1.0439-4.734,2.24307-9.235.081-13.81855-.14287-.3029-.81965-.22846-.8269.14095-.23673,12.05916-1.21983,24.29352.71907,36.25331.05746.35441.83655.1882.8269-.14095A307.33973,307.33973,0,0,1,81.96921,8.17643c.04531-.43238-.76273-.29382-.83238.0618-1.40682,7.1827-.03772,14.34105-.21015,21.58036-.15357,6.44734-1.04327,12.669.68692,18.98446.09377.34228.84187.19585.8269-.14095a64.52245,64.52245,0,0,1,.118-11.02438c.4091-3.20758,1.3375-6.207,1.34154-9.46557.00777-6.27023.763-13.393-.7384-19.54076-.08731-.35752-.80647-.18588-.8269.141a260.06759,260.06759,0,0,0,.62061,40.40635c.034.36432.80179.17713.8269-.141,1.0784-13.665,2.30134-27.33218,1.95028-41.05372-.011-.43144-.84184-.30784-.83239.0618.22392,8.7518-.174,17.48-.79984,26.20849-.2734,3.81345-1.17937,7.97534-.90887,11.78421.22807,3.21145.28638-.32893.1691-1.86852q-.32556-4.27383-.5142-8.55688c-.35194-8.29258-.21885-16.92731.05319-25.0299-.25015,7.45065.91924,16.22851-.59265,23.86889a40.3346,40.3346,0,0,0-.81261,11.51072c.31342,3.27742-.127-3.405-.15808-4.04434-.09819-2.01907.001-4.0464.10438-6.0629A172.74342,172.74342,0,0,0,81.399,11.72693c-.02107-.22976.73405-2.84883-.46626-1.54068-.32444.35359-.23453,2.42553-.28009,2.92464q-.267,2.926-.47534,5.85669-.486,6.83844-.65194,13.694c-.0978,4.04224-.66547,8.72092-.0331,12.73043.43755,2.77432.65241,2.30177.3462-.17791a74.0938,74.0938,0,0,1-.52225-7.41332c-.1118-4.96212.1062-9.94139.20359-14.90247.04422-2.25242-.13757-4.64376.135-6.87836-.12488,1.02372.03437-1.6026-.11338-1.41694-.18232.2291.59987,4.48766.564,5.20792-.20839,4.18656-1.70154,8.3102-2.35576,12.43938a84.23985,84.23985,0,0,0-.94578,14.55812c.007.43649.7765.30209.83239-.0618,1.0672-6.949-.73444-14.21472-.87527-21.19741-.05673-2.81274.35673-6.89326-.206-9.116.99242,3.91982-.32373,9.43685-.68342,13.38705L74.84416,41.10405c-.1072,1.17722-.02274,4.56614.41405,1.79965a38.6163,38.6163,0,0,0,.01955-5.68024l.08147-23.66767c.00149-.43328-.78824-.30586-.83239.0618a27.46969,27.46969,0,0,0-.30418,5.61618c.1952,2.28409,1.31075,4.17157,1.748,6.38152,1.173,5.92843-1.51767,12.20022-1.90464,18.077-.00375.05693-.269,3.12214.40852,1.88107.43667-.79993.00478-2.97071-.06622-3.86157-.18087-2.26943-.63207-4.51331-.95526-6.76448-.90241-6.28567-1.07374-12.4437.7192-18.57961.10736-.36741-.70829-.32059-.80909-.01689-2.53586,7.64024-.316,15.18505-.74985,22.99032-.05892,1.06.07582,5.57466-.45913,1.51912a42.5585,42.5585,0,0,1-.0957-6.47668c.12112-5.29111.30974-10.58161.46459-15.87185.01259-.43-.80215-.30939-.83238.0618L70.46748,33.591l-.45871,5.63155L69.703,42.97693a13.01835,13.01835,0,0,0,.32756-3.24767c.488-4.04054,1.53121-7.984,1.7886-12.05475a89.32967,89.32967,0,0,0-.3946-12.4107c-.02706-.355-.81936-.18708-.8269.141-.11749,5.11153-.391,10.212-.89815,15.30059q-.38013,3.8139-.91521,7.61023c-.11631.82511-.80754,8.34682-.84174,4.10921-.0385-4.771,1.44388-9.47852,1.87794-14.21933a74.62749,74.62749,0,0,0-.05674-13.22289c-.03145-.36639-.79687-.17415-.8269.14095-.51792,5.43353-1.03715,10.86785-1.4054,16.314-.1732,2.56144-.31489,5.12476-.40655,7.69048a16.18064,16.18064,0,0,0-.09981,3.84877c-.08519-.35363.29089,2.10733.801,1.09261.67252-1.3377-.60834-5.10761-.77859-6.5889a39.42407,39.42407,0,0,1-.07282-8.5012c.475-4.74914,1.30526-9.29871.67462-14.06968-.04837-.36592-.80281-.177-.8269.141-.17441,2.30136-1.29568,22.63523-1.39119,22.64932.72183-.10646.14986-9.95521.12452-11.36946-.03169-1.769.32709-3.987-.10156-5.66934-.48773-1.91416-.2544-3.05432-.83877.1693-.67146,3.704-.184,7.8614-.53188,11.64685A48.63668,48.63668,0,0,0,63.41646,38.27c.141,3.51127.16476,1.62127.65708-.05438.9876-3.36138.48961-8.09386.43774-11.55894-.05826-3.89223-.35478-7.75307-.78967-11.61972-.04144-.36842-.79684-.1733-.8269.141-.435,4.5482-.77329,9.10214-.96379,13.66737q-.14285,3.423-.1812,6.849c-.01379,1.13021-.80469,5.29734.78927,4.8131.49062-.14905-.38009-13.018-.40084-13.83507a61.37589,61.37589,0,0,1,.64742-12.631c.07524-.41582-.75475-.29843-.83239.0618-1.01876,4.72681-.85089,9.39681-.534,14.18841.12251,1.85256,1.4962,13.2749-.35088,14.10319-.25042.11229-.44651-14.67813-.40861-15.8459l.55848-17.20914c.01392-.42905-.82028-.31116-.83239.0618Z" transform="translate(0.14641 -7.66908)"/></g><g id="1ac4fee9-d78b-4d6b-baa8-bb23e0f06b96" data-name="41"><path class="7d228dab-ba4e-4164-a80e-17fa85d7a0f2" d="M84.81148,7.9436c-.226,3.24336.59694,6.3634.65526,9.59853.06282,3.485-.5394,6.97309-.66461,10.45306-.2595,7.2126.53385,14.40426,1.31847,21.56236.01808.16495.84043.0054.82142-.2201-.84337-10.00255,1.2359-19.92427.65334-29.92231a46.697,46.697,0,0,0-.60539-7.2445c-.972-4.28009-.39811.53312-.3581,1.9353a127.85648,127.85648,0,0,1-.763,13.373,39.133,39.133,0,0,0,1.2429,12.71076c.45614,1.89049.31777,4.60743.95713,6.33126.8122,2.18983.60578-3.84914.6657-4.78879a259.58557,259.58557,0,0,0,.48466-30.43667c-.00888-.16559-.79972.00122-.82142.2201a157.072,157.072,0,0,0,.82406,37.88871c.0253.17656.81874-.00406.82142-.2201q.19044-15.3596,1.06339-30.69726c.11747-2.01148.25006-4.87376-.574-1.00793-.48158,2.25906-.08218,5.11837-.11936,7.43409l-.23872,14.86817c-.00238.1481.791.00657.81623-.18079q1.55316-11.52966,2.15442-23.13928c.00666-.129-.80693-.02756-.82142.2201-.17814,3.04481-.31305,6.09067-.36164,9.14054-.045,2.82651-.842,7.40663.10312,10.06169.7865,2.20946.55528-.37194.67831-1.30686.19815-1.50573-.04923-3.255.00976-4.79633.06115-1.5982.17488-3.19381.35672-4.78308.68516-5.98813.3105-4.03492.30562-1.60926-.006,2.96363-.3048,6.75338.28131,9.64353.19572.9651.07263,3.27511.674,1.06705.3386-1.2432-.045-2.95815.03781-4.29366.11773-1.89915.0249-5.04967.89666-6.76806a6.39993,6.39993,0,0,0-.54585,2.94893c-.0219,3.263.11827,6.51479.35143,9.769.01145.15977.82309.00874.82142-.2201-.01166-1.5948-.36326-10.68648.139-11.01042-.9619.62044.18547,9.12267.25282,10.44949.00774.15257.83218.01486.82141-.2201-.15245-3.32721.44624-7.27461.40856-9.938.04022,2.843.13563,6.12361.29712,9.11715.00835.1548.82518.01265.82141-.22009-.0365-2.25784.48781-5.03444-.01685-7.16431-.388-1.63761-.22048,1.91955-.21894,2.265.00708,1.57964.03312,3.15842.06391,4.73779.00293.14983.81146.01375.82142-.2201.06334-1.48725.33035-6.44481.36179-6.59073a31.6471,31.6471,0,0,0-.27907,6.0597c-.00047.16515.7677-.01494.81623-.18079a4.42181,4.42181,0,0,0,.37455-1.29077q.18153-1.42089,2.00727-2.0327c-.005.14817.5231.00152.55428-.011.22333-.08942,2.65311,1.7554,3.20773,1.953.26737.09527.88048-.23412,1.13662-.207,1.67391.17707,3.23119.83973,4.96351.70171,2.20488-.17566,5.02191-1.78118,4.88552,1.64734-.00737.18539.65944-.04734.72635-.09375l5.553.2126c.10961.19642.73808-.01987.81623-.18079a1.52347,1.52347,0,0,1,1.08221-1.56963c.12634.15477.64913-.05912.75919-.16935.44418-.44484,3.32629.19355,3.80558.54655.16669.12277.63217-.02781.75919-.16935l2.92164-3.25546c.17141-.191-.6082-.097-.74527.05569-.54.60171-2.116,3.12031-3.33124,2.22529-.14424-.10624-.49485.01379-.62465.08212a4.56267,4.56267,0,0,1-3.68546-.71839c-.10906-.13362-.76069.04635-.79207.21224-.53736,2.84-1.21643.82123-3.30876.8836.01133-.00034-3.03947.97186-2.79725,1.08821-.46439-.22305-.95969-1.74657-1.68727-2.25813-.10533-.07406-.31635.10981-.40877.07284a11.42,11.42,0,0,1-6.30679.81315,3.06166,3.06166,0,0,1-2.14509-.76575c-.13162-.14768-.578.05362-.70219.1252l-1.69674-1.67836c.012-.08869-.06842-.09239-.14032-.10119-1.35824-.16623-2.53884-1.27629-3.79131-1.07a2.32915,2.32915,0,0,0-1.34674,1.10085c-.23009.42133-.13734,1.04766-.38162,1.40594q.93885,1.52094.35491-1.48923l.0111-3.89512c.00044-.15393-.78442-.0007-.81622.18079-.13312.75955-1.44084,6.23286-.85834,6.86211.656.70868.69031-2.31136.68856-2.29166.16334-1.83281-.00219-3.84347.01722-5.68582.00158-.14974-.79016-.00523-.81622.18078-.21707,1.54941-1.6556,7.24817-.63894,8.24872.93589.92105.56048-3.90308.558-3.94848l-.29-5.37651c-.0091-.16857-.78058.01023-.81623.18078-.17588.84149-1.84266,9.97007-1.02986,10.13882,1.36935.28431.34911-9.36028.28366-10.64987-.00838-.165-.79945.00089-.82142.22009-.24574,2.452-.44723,4.90267-.53929,7.36587-.0185.495-.37258,4.98754.63586,3.546.33841-.48376-.20315-4.684-.21446-5.3289-.04156-2.37194.01322-4.73968.10337-7.1097.0057-.14984-.77491.00041-.81623.18079a51.1195,51.1195,0,0,0-1.1714,15.38725c.01185.16085.82112.00769.82142-.22009q.01122-8.68884-.50629-17.356c-.01-.16819-.78329.009-.81622.18079a69.9372,69.9372,0,0,0-1.02426,19.13016c.01331.16037.83184.009.82142-.2201-.2357-5.18127-.31-10.36267-.15389-15.5475.008-.26464.20039-4.56925.18946-4.57022-1.24318-.10987-.81139,1.54718-.92866,2.25548-.46633,2.81669-.41929,5.83143-.69455,8.67461-.243,2.50975-.79175,5.11815-.56392,7.60651.245,2.67567.23558-2.91933.23429-2.83877l.05968-3.71705.26856-16.72669c.00226-.14118-.806-.01842-.82142.2201q-.89374,13.84517-1.23574,27.71615c-.02613,1.13-.61508,5.93485.41726,5.82532-.06221.0066-.64216-5.4339-.66441-5.66069q-.64917-6.61764-.70977-13.27649c-.04031-4.437.48151-8.86568.46883-13.28715-.01-3.50034-.21747-1.3775-.29031.23864-.11334,2.51472.12039,5.08681.105,7.60871-.05421,8.88993-.67,17.76307-1.28449,26.628-.01046.1509.76218-.00922.81623-.18079,1.94542-6.175-1.74312-12.31871-1.70274-18.58892.04829-7.49907,1.45763-14.7134.4858-22.23606-.0227-.17568-.81437.00411-.82142.2201-.22071,6.76267.90656,13.42793.51592,20.22271-.19746,3.43476-.53021,6.86038-.705,10.29662-.05834,1.14692-.46223,9.12128.7496,8.17961.6158-.47851-.80715-8.28673-.88136-9.37013a96.56671,96.56671,0,0,1-.19908-11.26052c.15316-3.16787.68877-6.3392.63153-9.515-.05839-3.23893-.88161-6.34959-.65526-9.59853.00863-.12387-.804-.03032-.82142.2201Z" transform="translate(0.14641 -7.66908)"/></g><g id="57a8354b-58e0-4efc-b7e3-523d3bf7f7bf" data-name="40"><path class="7d228dab-ba4e-4164-a80e-17fa85d7a0f2" d="M148.64968,32.819c.5585-3.20072,3.86828-1.9324,5.79426-2.19559.74828-.10225.94842-1.44969,1.74847-.64128.1384.13985.75412-.01111.79207-.21223.90088-4.77474.34614-1.03119,2.72333-1.0977a3.26217,3.26217,0,0,0,.61719-.14835c1.6703-.3275,1.89445-3.24154,2.68592-4.38055,2.38822-3.43691.97921,1.24824,3.20494,2.51508a.72213.72213,0,0,0,.62846-.06787c1.13161-.6822,7.52734-4.76236,8.2087-3.14282.09824.23352.74537.00116.81793-.17444l.94225-.15482c.11612.208.68248.02761.78656-.12586,2.69745-3.97747,3.18041,3.19188,4.09334,4.643.13848.2201.72278.0153.81793-.17445,2.18457-4.35662,1.75994-1.23824,2.48268,1.32507.07155.25377.741-.02627.81792-.17444.84376-1.62582.93992-4.86276,1.91793-1.61273.06883.22874.82269.01169.82141-.22009-.01973-3.57955.2647-.15908.57349.93575.07032.24931.68719-.02911.78657-.12586,1.48695-1.44763,1.24451-.77346,1.93516,1.18557.07908.2243.69874.00672.78657-.12587.8339-1.25888,1.09579-3.59636,2.3704-.869.10436.2233.75123.01235.81793-.17444.65424-1.83221.559-1.51287,1.10983.24474.06644.212.80145.01889.81792-.17445.10124-1.18825-.26478-3.1937.28254-1.10837.05611.21378.80069.017.81793-.17444.117-1.3-.1839-1.8978.14835-.24584.2668,1.32649.38179,2.72288.56928,4.06009.03241.23119.76364-.00749.81792-.17444,1.09176-3.358.9565-4.59571.80464.24615-.0056.17862.79837.03888.81793-.17445.30705-3.34882.29033-5.62394.83471-.73614.02375.2132.81095.02066.82142-.22009.02877-.66134.35452-5.67025-.43248-5.46845-.61809.15849.70444,4.08153.9117,4.894.05873.23022.81553.01.82142-.22009a27.21427,27.21427,0,0,0-.73444-7.1379c-.05122-.21811-.87281-.01319-.82142.2201a16.31,16.31,0,0,0,1.4292,4.04446c.10442.20944.86518.01467.82142-.22009a41.22116,41.22116,0,0,0-1.87655-6.81125c-.08459-.22931-.89638.01687-.82142.2201a21.11462,21.11462,0,0,1,1.55224,5.07145c.06526.86376,1.00238-2.20254-.69292-.55031-.28333.27614.77175,4.15437.72914,3.53764a29.55213,29.55213,0,0,0-1.24423-4.87737c-.05579-.21869-.85522-.017-.82142.22009.06849.48045.20824,5.22954.43792,5.46848,1.1318,1.17746-.44142-3.35137-.38633-3.20039-.07634-.20921-.79994-.02175-.81792.17444-.06006.655-.67657,4.12218-.00119,3.8214.79323-.35325-.31293-2.58321-.59153-3.27644-.09072-.22574-.82556-.01366-.82142.2201.10937,6.16541-.4706.74616-.82581-1.78724-.03291-.23468-.7603.012-.81793.17445-.63872,1.80068.11662,1.98343-.62239.62124-.10333-.19046-.79989-.03724-.81793.17445-.18137,2.12872.32524,2.32372-.45621.47051-.096-.22768-.753-.00745-.81792.17445-.66454,1.861-.57923,1.3271-1.67415-.08463-.12841-.16557-.73863.03136-.79207.21224-.55159,1.867-1.15937,2.33376-1.90073.2309-.09141-.25929-.72881.03087-.81793.17445-1.3315,2.14529-1.7892-1.60026-1.9246-2.08032-.062-.21989-.78353-.0126-.81792.17444-.46879,2.54949.13335,1.71731-.39868-.05067-.06729-.22362-.77507-.00946-.81792.17445-.876,3.75982-1.43467,3.99584-1.95652-.03438-.03111-.24024-.70671.02826-.78657.12586-4.69015,5.73186-.102-2.30483-4.50344-2.94594-1.74642-.25438-1.55847,1.59038-3.08742.69058a.70132.70132,0,0,0-.79208.21224c-.29693.71864.0282.616-.88342-.124-.14347-.11647-.76778-.00414-.79207.21223-.1394,1.24154-3.04.94815-3.9364,1.30208.32136-.12688-2.73633,1.92647-2.27036,1.80223q-1.958,1.62933-2.06978-.98725l-1.21933-3.14179c-.09419-.24269-.73953.00972-.81792.17445-.70739,1.4863-1.4324,4.33746-2.60635,5.47626-1.56186,1.51509-1.867.46007-3.45855-.42437-.166-.09226-.74715-.02586-.79207.21224a2.63429,2.63429,0,0,1-.803,2.33342c-.1652-.16693-.7006.03273-.79208.21223-1.31081,2.572-6.71154.05839-7.39848,3.9952-.04206.241.7744.10062.81443-.12879Z" transform="translate(0.14641 -7.66908)"/></g><g id="08206b2f-1bc3-47b6-b000-2b7dd9929b2a" data-name="39"><path class="7d228dab-ba4e-4164-a80e-17fa85d7a0f2" d="M7.549,35.65968c8.01568.5363,15.81592-2.02956,23.86485-1.92719,8.14339.10356,16.30144.59072,24.42876,1.08392,15.20922.923,31.38982,4.38989,46.49165,1.469,5.09553-.98553,3.76812-5.59859-1.24057-4.62985-7.75186,1.4993-15.88325.05333-23.65909-.604Q66.237,30.10492,55.01519,29.48077c-7.47878-.41636-15.00053-.89065-22.49323-.87392-7.326.01635-14.64516,2.42949-21.89826,1.94421-3.44423-.23044-8.62206,4.73747-3.07466,5.10862Z" transform="translate(0.14641 -7.66908)"/></g><g id="582579ea-bbbf-42e5-be02-78ab582f362e" data-name="38"><path class="7d228dab-ba4e-4164-a80e-17fa85d7a0f2" d="M104.27119,35.87771l5.48183-1.5165c.42227-.11681,1.18557-.63218.282-.606l-3.82271.11085.392.2844c.31671-.41057.40059-.72113-.1599-.97077l-1.44651.60692q1.229.65267-.861,1.01624l-1.76394-.00372-3.52787-.00745c-.36058-.00076-1.86281.68515-1.061.68684,2.43356.00514,5.68917.62059,8.02487-.24175.94275-.34806,2.04451-1.67238.53565-2.09834-.34326-.0969-1.69564.496-1.44651.60693l.21584.51711c-.21708.28142.19112.29023.392.2844l3.82271-.11086.282-.606-5.48183,1.5165c-.94928.26261-.82583.799.14232.53115Z" transform="translate(0.14641 -7.66908)"/></g><g id="4c15b49b-8459-4e95-8e1e-853783f03cfc" data-name="37"><path class="7d228dab-ba4e-4164-a80e-17fa85d7a0f2" d="M7.62743,31.26556a11.00714,11.00714,0,0,0-6.165.71025c-.53222.21828-.66386,1.01415.0629,1.01963l5.62609.04237.37383-1.13665a34.36844,34.36844,0,0,0-5.20385.65787c-.26349.05333-.98383.5235-.61261.882a3.92641,3.92641,0,0,0,3.986.92456c.398-.12,1.00469-.59721.49595-.98619a4.71255,4.71255,0,0,0-2.54325-.96023c-.76631-.06516-1.694,1.04153-.58434,1.13589a3.37287,3.37287,0,0,1,1.85216.73853l.49594-.98619a2.15724,2.15724,0,0,1-2.19369-.57215l-.61262.882a31.40355,31.40355,0,0,1,4.757-.57865c.68644-.03251,1.393-1.129.37383-1.13665l-5.62609-.04237.0629,1.01963a8.60069,8.60069,0,0,1,4.87056-.47773c.77177.13624,1.68053-.94238.58434-1.13589Z" transform="translate(0.14641 -7.66908)"/></g><g id="392a3c35-31f3-4879-969e-75aa9a911dea" data-name="36"><path class="7d228dab-ba4e-4164-a80e-17fa85d7a0f2" d="M6.54763,34.43453a26.06191,26.06191,0,0,1-5.57473.163l.19587.731a6.08851,6.08851,0,0,1,4.62571-.72374l-.01189-.70936a3.78815,3.78815,0,0,1-2.33576.59018c-.63528-.041-1.74634.83575-.6333.95317a38.10152,38.10152,0,0,0,5.45917.18345l-.50558-.37688c-.15769.5775-1.8075-.2915-2.26514-.36345a3.08258,3.08258,0,0,0-1.56243.17748c-.9493.32283-.779,1.12482.22684.84658l3.46443-.95834c.32829-.09081,1.16989-.77419.38721-.87823a3.20878,3.20878,0,0,0-1.43812.081c-.28237.085-.538.26544-.81389.34863l-.18479.09525q-1.29567.45044-.90879-1.00808c.53612.08293,1.93218-.76589,1.00126-.90989-1.19871-.18542-3.40193.55413-2.69707,2.18335a1.675,1.675,0,0,0,1.72237.90574c.74955-.02743,1.668-.8725,2.31777-.78612L7.404,34.101l-3.46443.95834.22684.84658c.6927-.23557,1.60576.39046,2.31425.50564a3.49087,3.49087,0,0,0,1.33659-.04069,1.92406,1.92406,0,0,0,1.59434-1.325c.07346-.269-.31433-.38413-.50557-.37687a38.10218,38.10218,0,0,1-5.45917-.18345l-.6333.95317a6.43944,6.43944,0,0,0,3.9941-1.03453c.31921-.20327.47351-.60441-.01189-.70935a9.03833,9.03833,0,0,0-6.652,1.12481c-.48594.28986-.32119.69129.19587.731a28.02921,28.02921,0,0,0,5.99-.1828c.80054-.1099,1.35473-1.08941.218-.93336Z" transform="translate(0.14641 -7.66908)"/></g><g id="93e0bb37-4445-4b46-8013-569bc7a5b9e6" data-name="35"><path class="7d228dab-ba4e-4164-a80e-17fa85d7a0f2" d="M103.74232,32.65326c4.69721,2.76223,10.795,1.808,16.02482,1.82336l23.7784.07,47.55678.14006c.53363.00157,1.7709-.79623.67449-.79946l-41.61219-.12255-19.81533-.05836-10.89843-.03209c-4.55964-.01343-10.10849.7664-14.172-1.62319-.44769-.26326-1.87235.40473-1.53653.60221Z" transform="translate(0.14641 -7.66908)"/></g><g id="45c0b89b-2f2d-4b79-b4ff-44c859c5238e" data-name="34"><path class="7d228dab-ba4e-4164-a80e-17fa85d7a0f2" d="M195.36223,34.85092h9.21942c.961,0,1.24115-1.26683.12864-1.26683h-9.21942c-.961,0-1.24115,1.26683-.12864,1.26683Z" transform="translate(0.14641 -7.66908)"/></g><g id="7949bad0-3aed-48a3-ab65-f1b3c82ecc78" data-name="33"><path class="7d228dab-ba4e-4164-a80e-17fa85d7a0f2" d="M36.8287,62.62444c9.46734-.24551,19.19731.2433,28.48434-1.76218,12.59406-2.71961,26.84179-.45489,39.66309.048,11.90451.46694,24.41274-.07342,36.13771,2.09368a34.41934,34.41934,0,0,0,11.09924.11,87.055,87.055,0,0,1,20.05469-.15483c.20451.022,1.61961-.26225,1.30206-.63228a11.52307,11.52307,0,0,0-3.34909-2.77649l-1.54543.569,2.93984,1.39743c.23715.11273,1.757-.06581,1.59413-.50458a11.28852,11.28852,0,0,0-5.59813-6.51929c-.3491-.19342-1.42506.01309-1.58415.42447l-.86288,2.23131c-.16628.43,1.30438.004,1.44375-.10346,3.1177-2.403,4.82211,2.83334,5.39142,4.617.12254.38391,1.70018-.026,1.64284-.4402l-1.33407-9.63684-1.64283.44019a34.9959,34.9959,0,0,1,2.13572,9.90685c.01251.32769,1.60663.01482,1.64283-.44019a26.13767,26.13767,0,0,0-2.43-13.54564l-1.59413.50458a11.11973,11.11973,0,0,1,4.148,3.99792c.27182.41777,1.791-.21252,1.64283-.44019A12.39206,12.39206,0,0,0,171.965,47.882c-.23961-.145-1.77348.118-1.59413.50458a26.13776,26.13776,0,0,1,2.43,13.54563l1.64283-.44019a35.00873,35.00873,0,0,0-2.13572-9.90685c-.12843-.38447-1.7.02693-1.64283.44019l1.33406,9.63685,1.64284-.4402c-1.27113-3.98242-4.35624-7.28866-8.2989-4.24984l1.44375-.10346.86289-2.23131-1.58415.42447a11.53292,11.53292,0,0,1,5.50073,6.39053l1.59413-.50458-2.93984-1.39743c-.39027-.18551-1.81328.4146-1.54543.569a11.52348,11.52348,0,0,1,3.34909,2.77649l1.302-.63228a87.30653,87.30653,0,0,0-14.99259-.39492c-2.499.16089-4.95964.56034-7.44664.80318-4.37389.4271-7.89029-.43545-12.061-.9903-11.38681-1.51483-23.30025-1.09454-34.77606-1.54466-10.96161-.43-22.70067-2.14039-33.61509-.83643-5.23.62482-10.18521,2.03519-15.51294,2.18158q-8.69463.23889-17.39.451c-.46271.012-1.7866.71958-.70342.69149Z" transform="translate(0.14641 -7.66908)"/></g><g id="7947cb7e-b0df-4d44-b344-9444c2eb4e2b" data-name="32"><path class="7d228dab-ba4e-4164-a80e-17fa85d7a0f2" d="M174.97868,62.46587c1.08448-.97158.79888-2.32452.61673-3.61143a3.44649,3.44649,0,0,1,.01008-1.55551c.2438-.747.22227-.57165.6833-.28693a14.42889,14.42889,0,0,1,2.12909,2.17151l.28256-.45542c-1.01.57392-2.09518,1.09125-3.05629,1.74335-.42591.289-1.08974.79963-1.0655,1.3883.0239.58019.53344.66332,1.00274.74915,1.18194.21617,2.44607.22058,3.64347.32856.41361.0373,1.89711-.67787,1.04279-.75491-.78155-.07048-3.46251.05121-3.82159-.60327-.38834-.7078.80719-1.15556,1.36238-1.471l1.86633-1.06055c.134-.07617.46305-.27134.28257-.45542l-1.63776-1.67039c-.37558-.38306-.72179-.90984-1.231-1.08406a2.73758,2.73758,0,0,0-2.18372.48763c-2.27579,1.57227.41843,4.54824-1.42958,6.20387-.30249.271.26565.33865.40969.35025a1.62785,1.62785,0,0,0,1.0937-.41368Z" transform="translate(0.14641 -7.66908)"/></g><g id="e10af7a8-1d6c-4791-9988-72810274ae2e" data-name="31"><path class="7d228dab-ba4e-4164-a80e-17fa85d7a0f2" d="M180.682,61.942a77.35237,77.35237,0,0,0-3.074-10.96828c-.20863-.57731-1.83893-.10244-1.64283.44019a77.35445,77.35445,0,0,1,3.074,10.96828c.11486.5674,1.76461.16137,1.64284-.44019Z" transform="translate(0.14641 -7.66908)"/></g><g id="8afa7bab-e0e3-49ae-85e1-4dcbc6fdb47a" data-name="30"><path class="7d228dab-ba4e-4164-a80e-17fa85d7a0f2" d="M181.10524,61.74282c-1.02022-1.74994-.38833-3.08238-.117-5.00065a7.13921,7.13921,0,0,0,.1398-1.96782c-.10913-.91361-.85018-1.83828-.88169-2.71673-.0395-1.10127.942-1.968,1.11421-3.02436.31712-1.94487-1.24963-3.51693.21955-5.29777a2.37942,2.37942,0,0,0-1.61651.3037c-.92775,1.12454-.68528,1.812-.58071,3.18948a7.83,7.83,0,0,1-.1629,3.44553c-.0899.28847-.50178.49266-.53811.8127-.226,1.99077.93393,3.50577.61564,5.62257-.28317,1.88322-.87826,3.28433.16487,5.07354.21989.37718,1.7552-.24746,1.64283-.44019Z" transform="translate(0.14641 -7.66908)"/></g><g id="75047255-d475-432b-8d48-f9302f2874fb" data-name="29"><path class="7d228dab-ba4e-4164-a80e-17fa85d7a0f2" d="M182.08085,50.14449a5.254,5.254,0,0,0,1.701-2.0398,4.969,4.969,0,0,0,.34617-1.118c.0251-.13577.18032-1.8.37769-1.70876.65575.30325,1.896-.64019.9572-1.07434a2.09815,2.09815,0,0,0-2.681,1.15176,17.11189,17.11189,0,0,0-.39789,2.114,3.69932,3.69932,0,0,1-1.382,1.96552c-.89271.66612.447,1.1811,1.07884.70964Z" transform="translate(0.14641 -7.66908)"/></g><g id="10989a72-0e79-4fb2-becb-e46de4ff566c" data-name="28"><path class="7d228dab-ba4e-4164-a80e-17fa85d7a0f2" d="M179.69382,63.42964c1.83666.00943,3.67362.03063,5.5103.0283a5.68342,5.68342,0,0,0,2.9605-.41843c1.05759-.626,1.52486-1.998.29282-2.72866l-.69756,1.10722,4.83417-.45085c.93411-.08711,1.2526-1.34855.13468-1.24429l-4.83417.45084c-.41759.03895-1.37814.7036-.69756,1.10721a1.46963,1.46963,0,0,1-1.8582.93266l-1.83677-.00943-3.67353-.01887c-.95352-.0049-1.24742,1.23858-.13468,1.2443Z" transform="translate(0.14641 -7.66908)"/></g><g id="e57d1670-7c12-4254-89b5-fd56a2a9803f" data-name="27"><path class="7d228dab-ba4e-4164-a80e-17fa85d7a0f2" d="M188.009,63.61753c-47.20337-1.72238-94.48424-4.53665-141.69065-1.54245-.2916.0185-1.36462.49568-.77314.82514,3.04148,1.69413,6.09265,1.09408,9.39508.60578a139.96306,139.96306,0,0,1,20.12995-1.35376c12.55848-.03312,25.13417.63368,37.68439,1.04027l36.228,1.17369,18.10565.58658c2.42248.07848,7.32037,1.15273,9.61868.31161,1.90117-.69577-.65053-.70085-1.16715-.7482a51.18512,51.18512,0,0,0-5.60765.1342c-.59233.01418-1.74856.92635-.64755.9l9.34608-.22367c.57069-.01366,1.77455-.86349.64755-.9l-65.87608-2.1342c-10.93552-.35428-21.87558-.83193-32.81576-1.00235-4.93143-.07682-9.86794-.0502-14.79241.24712-5.39723.32588-14.116,3.27163-18.93642.58663l-.77314.82514c47.06347-2.98514,94.21691-.14869,141.277,1.56846.60394.022,1.75235-.85968.64755-.9Z" transform="translate(0.14641 -7.66908)"/></g><g id="45519439-7c21-4e86-becd-388c498eaea1" data-name="26"><path class="7d228dab-ba4e-4164-a80e-17fa85d7a0f2" d="M79.22453,63.72772a53.80818,53.80818,0,0,1,18.83062.56334,17.20559,17.20559,0,0,0,6.01393.5563c11.08119-1.129,22.36972-.23275,33.542.13367a457.16388,457.16388,0,0,1,61.2439,5.87548c.41323.06959,1.90223-.605,1.04423-.74952-21.96828-3.69957-43.8437-5.32388-66.09149-6.03035-9.17926-.29148-18.66438-1.34382-27.79738-.3716-4.76913.50768-9.02992-.79925-13.76648-1.18132a57.67849,57.67849,0,0,0-12.74271.48933c-.70865.10014-1.42913.87753-.27659.71467Z" transform="translate(0.14641 -7.66908)"/></g><g id="231140c7-7ed7-4402-ac62-d37151bb11c7" data-name="25"><path class="7d228dab-ba4e-4164-a80e-17fa85d7a0f2" d="M126.37156,65.74062q41.89211,1.67449,83.56029,6.50643c.36883.04278,1.88169-.592,1.06092-.68723q-41.64639-4.83024-83.56029-6.50643c-.36455-.01457-1.87153.65483-1.06092.68723Z" transform="translate(0.14641 -7.66908)"/></g><g id="f8b5a032-88c6-4684-ae2e-5c2e31e40678" data-name="24"><path class="7d228dab-ba4e-4164-a80e-17fa85d7a0f2" d="M211.59388,71.94879,130.2098,65.43343c-.42216-.0338-1.89845.69955-1.03919.76834l81.38408,6.51535c.42216.0338,1.89845-.69954,1.03919-.76833Z" transform="translate(0.14641 -7.66908)"/></g><g id="b6f3a90b-0ac6-45ab-b826-fd444ee95e3e" data-name="23"><path class="7d228dab-ba4e-4164-a80e-17fa85d7a0f2" d="M128.809,67.93839c14.2289.86025,28.55633,1.31734,42.72069,2.97405,11.81932,1.38243,23.24846,4.92735,35.06718,1.67625.96109-.26438.80445-.91-.17188-.64145-12.88216,3.54364-26.56707-1.20748-39.53192-2.38334-12.31739-1.11715-24.69991-1.64405-37.04394-2.39034-.41774-.02526-1.89393.71321-1.04013.76483Z" transform="translate(0.14641 -7.66908)"/></g><g id="d4f9a48f-74f7-4fda-9f7e-710a2637ae41" data-name="22"><path class="7d228dab-ba4e-4164-a80e-17fa85d7a0f2" d="M94.091,68.30827c8.96873-.1024,17.92039.28087,26.87381.7667,7.9143.42944,19.91506-1.01413,26.35967,4.14876.34265.2745,1.77816-.37125,1.54929-.5546-6.017-4.82031-15.79223-3.63831-23.004-4.03909-10.23126-.56858-20.45921-1.09619-30.7099-.97915-.34173.0039-1.85232.66633-1.06891.65738Z" transform="translate(0.14641 -7.66908)"/></g><g id="8900396f-56fd-4f2f-abc9-646d9edd4154" data-name="21"><path class="7d228dab-ba4e-4164-a80e-17fa85d7a0f2" d="M100.693,72.92756c1.33637,1.51336,3.1033,1.78468,5.05392,1.67475,3.83672-.21622,7.73945-1.17311,11.53046-1.7853.79784-.12884,1.34674-1.13052.21417-.94763l-7.37478,1.19091c-2.54942.41169-5.923,1.45378-7.901-.78619-.39032-.442-1.96236.15568-1.52279.65346Z" transform="translate(0.14641 -7.66908)"/></g><g id="22674bab-6cf3-48c3-86b7-542fcf3c6414" data-name="20"><path class="7d228dab-ba4e-4164-a80e-17fa85d7a0f2" d="M113.89045,60.99651q18.75652-6.95016,37.25762-14.555c2.60682-1.07154.29308-3.16945-1.79-2.31319Q130.85725,51.733,112.10042,58.68333c-2.64286.9793-.30063,3.08787,1.79,2.31318Z" transform="translate(0.14641 -7.66908)"/></g><g id="1c792ab4-df74-4cd0-a629-1d96ea1c26ad" data-name="19"><path class="7d228dab-ba4e-4164-a80e-17fa85d7a0f2" d="M125.07715,61.52628a62.58108,62.58108,0,0,0,9.45722-3.045c5.03455-2.10249,9.18415-2.01883,14.19445-.28929l.892-2.47936a62.74891,62.74891,0,0,0-8.99782,3.19861c-3.24864,1.24148-7.64707-.1972-11.03482-.70235l-.42507,2.55946c4.21011-1.31928,9.06318-4.40781,13.546-2.44128l-.07649-1.56987c1.166-1.02857-.605-.66945-1.507-.78662a13.54271,13.54271,0,0,0-4.01235-.01738c-1.73441.33951-2.73835.85082-3.43457,2.44165a.8883.8883,0,0,0,.33119,1.236c1.83929,1.22363,6.34467.29886,3.42579-1.71091-1.56329-1.07639-4.482-.79423-6.21183-.619-1.84636.18707-4.04636,1.03627-5.85869,1.01009-1.3267-.01916-2.55616-.91244-3.74874-1.07977-2.1821-.30616-4.13612.73424-6.12045,1.50965-1.42743.55779-1.60433,2.19523.10912,2.36944l5.31185.54009c1.80914.18394,4.27643-2.38836,1.50633-2.67l-5.31185-.54008.10912,2.36944c2.54015-.9926,1.7498-.388,4.17377.17163,3.10941.71788,6.31624-.93038,9.37046-1.0265,3.41451-.10745,8.03505,3.70261,10.62261-.24415a.899.899,0,0,0-.0458-.999c-1.22088-2.28667-6.96246-.95255-.15782.26514a5.1444,5.1444,0,0,0,4.817-1.2663c.44877-.39587.57936-1.28216-.07649-1.56987-6.23757-2.73628-11.39364.291-17.41737,2.17862-1.48077.464-2.63785,2.22951-.42507,2.55946,3.46034.516,8.00546,2.02723,11.47687,1.30253,3.65864-.7638,6.94841-3.18,10.71829-4.01988,1.17918-.26269,2.65566-1.87055.892-2.47936-3.71043-1.28083-7.56937-2.47944-11.52716-1.81908-5.22616.872-10.01815,3.95663-15.22084,5.21429-2.52156.60954-1.85979,3.0571.65618,2.44891Z" transform="translate(0.14641 -7.66908)"/></g><g id="18149707-6ec6-495a-9728-3ad4392985d4" data-name="18"><path class="7d228dab-ba4e-4164-a80e-17fa85d7a0f2" d="M110.77348,59.38463q-6.84914-1.8177-13.80085-3.1772c-.529-.10347-1.933.71659-1.00439.89821q6.95448,1.36013,13.80085,3.1772c.529.14038,1.92994-.65258,1.00439-.89821Z" transform="translate(0.14641 -7.66908)"/></g><g id="a0680af8-7955-47d2-bf6d-d4f9c88c46c3" data-name="17"><path class="7d228dab-ba4e-4164-a80e-17fa85d7a0f2" d="M87.685,59.23683q4.18872-.8995,8.30693-2.07434c1.01313-.289.69865-1.49372-.32221-1.20251q-4.11987,1.17525-8.30693,2.07434c-1.03809.22293-.70536,1.42318.32221,1.20251Z" transform="translate(0.14641 -7.66908)"/></g><g id="5bcdcea0-2831-483b-9f74-39ae39b79001" data-name="16"><path class="7d228dab-ba4e-4164-a80e-17fa85d7a0f2" d="M94.62824,59.04526a9.21972,9.21972,0,0,0,4.77186-1.26482c.28763-.16638.419-.50822.12222-.72263-.322-.23264-.87347-.03865-1.16908.13236a6.06684,6.06684,0,0,1-3.11353.82046c-.34951-.00258-.9151.10529-1.07863.46992-.15189.33867.1311.56222.46716.56471Z" transform="translate(0.14641 -7.66908)"/></g><g id="611d7c0f-767d-4b93-a39e-53ea80d2831e" data-name="15"><path class="7d228dab-ba4e-4164-a80e-17fa85d7a0f2" d="M99.28544,60.39911l3.91594-1.71706c.1864-.08173.65354-.259.47442-.52428-.15523-.22993-.89788-.01373-1.06682.06035L98.693,59.93518c-.18639.08173-.65354.259-.47442.52428.15523.22993.89788.01373,1.06682-.06035Z" transform="translate(0.14641 -7.66908)"/></g><g id="99d21a69-510b-4b68-aa48-86c602e43cf3" data-name="14"><path class="7d228dab-ba4e-4164-a80e-17fa85d7a0f2" d="M99.158,55.88892c5.161-1.65311,8.73408,3.53479,13.78035,2.70724.91284-.1497,1.24007-1.43492.13228-1.25325-3.0755.50435-5.46046-1.62589-8.20653-2.5701a9.29474,9.29474,0,0,0-6.02184-.06221c-.99557.31889-.69671,1.50262.31574,1.17832Z" transform="translate(0.14641 -7.66908)"/></g><g id="45409f40-29ed-4807-8f30-57ed613d777f" data-name="13"><path class="7d228dab-ba4e-4164-a80e-17fa85d7a0f2" d="M103.0571,54.30562q7.423,1.3957,14.92,2.28265c.68905.08165,1.72133-.88306.617-1.01391Q111.2799,54.70769,104.045,53.346c-.57911-.10889-1.939.78079-.98793.95962Z" transform="translate(0.14641 -7.66908)"/></g><g id="056feeb3-b7b6-4a3d-9ada-ad103b633eee" data-name="12"><path class="7d228dab-ba4e-4164-a80e-17fa85d7a0f2" d="M107.26233,53.80545l13.82845,1.849c.8201.10965,1.66821-1.0644.56393-1.21205l-13.82845-1.849c-.8201-.10966-1.66821,1.0644-.56393,1.212Z" transform="translate(0.14641 -7.66908)"/></g><g id="7e0ab473-dd9e-4fd4-82e8-a3ef8e7c6265" data-name="11"><path class="7d228dab-ba4e-4164-a80e-17fa85d7a0f2" d="M112.24278,52.21821A120.61612,120.61612,0,0,1,124.519,54.10478c.48209.0997,1.9234-.65265,1.02013-.83946a120.61759,120.61759,0,0,0-12.27623-1.88656c-.47614-.04827-1.91551.74868-1.02013.83945Z" transform="translate(0.14641 -7.66908)"/></g><g id="6014573e-e2a6-40e8-9c33-aadb2948eaeb" data-name="10"><path class="7d228dab-ba4e-4164-a80e-17fa85d7a0f2" d="M116.66354,50.28034a45.0492,45.0492,0,0,0,12.76972,2.3822c.34071.01426,1.86108-.61493,1.07143-.648a44.08273,44.08273,0,0,1-12.487-2.35466c-.35884-.1225-1.80794.46552-1.35414.62043Z" transform="translate(0.14641 -7.66908)"/></g><g id="553f6e95-664f-4164-8324-d868d314681d" data-name="9"><path class="7d228dab-ba4e-4164-a80e-17fa85d7a0f2" d="M121.07284,49.74788A79.6487,79.6487,0,0,1,132.464,51.38113c.82723.18026,1.64612-.98807.56057-1.22462a79.64743,79.64743,0,0,0-11.39115-1.63325c-.82112-.05779-1.66887,1.14661-.56056,1.22462Z" transform="translate(0.14641 -7.66908)"/></g><g id="594a1198-36e6-4c39-bc3a-a8852c52fc70" data-name="8"><path class="7d228dab-ba4e-4164-a80e-17fa85d7a0f2" d="M125.31039,47.67263l11.67034,1.89079c.38481.06235,1.786-.56211,1.35088-.6326L126.66127,47.04c-.38481-.06235-1.786.56211-1.35088.6326Z" transform="translate(0.14641 -7.66908)"/></g><g id="7467673a-740b-440f-a533-cb909b4feaa4" data-name="7"><path class="7d228dab-ba4e-4164-a80e-17fa85d7a0f2" d="M130.07838,46.73491a42.10489,42.10489,0,0,0,10.95514,1.84862c.69438.0249,1.72043-.99814.61059-1.03794a40.66461,40.66461,0,0,1-10.58307-1.79c-.59525-.1834-1.93325.68642-.98266.9793Z" transform="translate(0.14641 -7.66908)"/></g><g id="8e186083-3a56-4a3a-8401-724eb4a07013" data-name="6"><path class="7d228dab-ba4e-4164-a80e-17fa85d7a0f2" d="M133.05141,46.22749q6.629.09,13.23122.65534c.744.06369,1.70325-1.0066.59353-1.10161q-6.60541-.56551-13.23122-.65533c-.731-.00992-1.70183,1.08656-.59353,1.1016Z" transform="translate(0.14641 -7.66908)"/></g><g id="c469cd7f-f67b-40f2-99d2-b6a8c0c4c6a3" data-name="5"><path class="7d228dab-ba4e-4164-a80e-17fa85d7a0f2" d="M136.32785,44.69493a50.35177,50.35177,0,0,1,11.284,1.104c.62889.13353,1.94251-.81153.97243-1.0175a53.77493,53.77493,0,0,0-12.0778-1.16661c-.88935.01373-1.30279,1.09747-.17867,1.08012Z" transform="translate(0.14641 -7.66908)"/></g><g id="d085c9a0-3dc3-4a27-92eb-43691f594704" data-name="4"><path class="7d228dab-ba4e-4164-a80e-17fa85d7a0f2" d="M138.502,43.4776a66.7716,66.7716,0,0,1,13.03673.9751c.80833.13991,1.6666-1.00222.56926-1.19217a68.96246,68.96246,0,0,0-13.45952-.98318c-.93366.02227-1.26529,1.22694-.14647,1.20025Z" transform="translate(0.14641 -7.66908)"/></g><g id="7aa2df8e-7c7e-45d3-a60f-219b643bebfa" data-name="3"><path class="7d228dab-ba4e-4164-a80e-17fa85d7a0f2" d="M146.74666,47.74385c2.48157,1.80755-.31454,5.4609.805,7.8611.18544.39757,1.77322-.16066,1.64284-.44019-1.133-2.42912,1.70213-6.085-.89979-7.98019-.36686-.26722-1.78259.38843-1.548.55928Z" transform="translate(0.14641 -7.66908)"/></g><g id="f2bd4187-6992-4f9a-b4bb-faaa7127c901" data-name="2"><path class="7d228dab-ba4e-4164-a80e-17fa85d7a0f2" d="M147.92766,49.89821a8.23763,8.23763,0,0,1,2.18171,2.54635l.74-.52384a7.01346,7.01346,0,0,0-3.8162,2.29966c-.37112.44591,1.22011.26366,1.5007-.07348a4.57089,4.57089,0,0,1,2.47828-1.6187c.1179-.02847.87311-.2828.74-.52384a8.70819,8.70819,0,0,0-2.28367-2.69212c-.38287-.29928-1.854.34119-1.54088.586Z" transform="translate(0.14641 -7.66908)"/></g><g id="2d6a1748-50b9-42ed-8d49-4c39972088e9" data-name="1"><path class="7d228dab-ba4e-4164-a80e-17fa85d7a0f2" d="M137.39315,52.1485a13.77157,13.77157,0,0,1,1.36927,4.40442c.09858.704,1.74705.30413,1.64283-.4402a14.538,14.538,0,0,0-1.50263-4.66743c-.30818-.60064-1.88552-.02971-1.50947.70321Z" transform="translate(0.14641 -7.66908)"/></g><path class="7d228dab-ba4e-4164-a80e-17fa85d7a0f2" d="M190.457,65.009a1.04252,1.04252,0,0,1,.27344.19043,1.20535,1.20535,0,0,1,.24219.31348,1.19182,1.19182,0,0,1,.13086.38965,1.44237,1.44237,0,0,1,.02343.3457,1.07043,1.07043,0,0,1-.0498.23828.79724.79724,0,0,1-.0957.19629.92962.92962,0,0,1-.20508.20313,1.37836,1.37836,0,0,1-.33008.18554,1.1335,1.1335,0,0,1-.418.06934.55058.55058,0,0,1-.31641-.06836,1.65852,1.65852,0,0,1-.16015-.14453.37047.37047,0,0,1-.09473-.23633.66385.66385,0,0,1,.05274-.30859,6.2499,6.2499,0,0,1,.33007-.5918,4.76956,4.76956,0,0,0,.27637-.49023.18011.18011,0,0,0,.00195-.09082c-.00683-.02637-.03808-.05371-.09277-.083-.05566-.0293-.15918.01172-.31055.12207-.15136.11133-.15918.1123-.02441.00586.13477-.10742.23633-.1875.30664-.24121a.25284.25284,0,0,1,.17578-.07325c.04883.00586.08789.00977.11719.01075A.59758.59758,0,0,1,190.457,65.009Zm.05274.48536c-.03614-.01954-.14942.1289-.34375.44628a4.70027,4.70027,0,0,0-.32911.5918.4613.4613,0,0,0-.03515.13672.1976.1976,0,0,0,.03711.06738.15771.15771,0,0,0,.09277.06543,1.15088,1.15088,0,0,0,.13574.03321.76212.76212,0,0,0,.32227-.09473.66263.66263,0,0,0,.32324-.24316.80054.80054,0,0,0,.0918-.20313.82406.82406,0,0,0,.001-.21875.98717.98717,0,0,0-.06543-.27637.77574.77574,0,0,0-.1123-.20215A.3985.3985,0,0,0,190.50977,65.49434Z" transform="translate(0.14641 -7.66908)"/><path class="7d228dab-ba4e-4164-a80e-17fa85d7a0f2" d="M192.08008,65.17793a.69767.69767,0,0,1,.26953.02539,1.00051,1.00051,0,0,1,.26074.08594.80443.80443,0,0,0,.14844.07226,1.34513,1.34513,0,0,1,.416.42383.19146.19146,0,0,1,.01465.11035.13778.13778,0,0,0-.00195.07422.19894.19894,0,0,1-.02734.11231.52876.52876,0,0,1-.08985.13281.85.85,0,0,1-.11523.09375.2677.2677,0,0,0-.085.0918.09788.09788,0,0,0,.02148.11132.37546.37546,0,0,1,.06445.13672.28323.28323,0,0,1-.01269.16211.81169.81169,0,0,1-.19238.24219,1.80878,1.80878,0,0,1-.42969.29394,2.20151,2.20151,0,0,1-.42871.17872,1.33714,1.33714,0,0,1-.20313.04394c-.02636.001-.041-.01465-.042-.0459a.53.53,0,0,1,.00586-.084.15032.15032,0,0,1,.03613-.07129.92659.92659,0,0,1,.082-.08106,1.27355,1.27355,0,0,1,.26172-.14453,1.97558,1.97558,0,0,0,.38184-.2334,1.37588,1.37588,0,0,0,.2041-.17871c.02246-.02929.0293-.05078.02148-.06543-.00683-.01464-.03613-.02929-.08984-.04492a1.32907,1.32907,0,0,0-.43359.04981,1.084,1.084,0,0,1-.40625.0459.14247.14247,0,0,1-.07129-.07618.16179.16179,0,0,1,.02246-.13379.23923.23923,0,0,1,.11621-.11425.49566.49566,0,0,1,.15332-.043c.05566-.00684.12305-.01953.20215-.03711a1.54277,1.54277,0,0,0,.3418-.14063,1.76888,1.76888,0,0,0,.293-.1748.09966.09966,0,0,0,.03711-.127.52307.52307,0,0,0-.1582-.1543,1.04427,1.04427,0,0,0-.2959-.14453.80916.80916,0,0,0-.25781-.05078.3695.3695,0,0,0-.19238.07129c-.06836.04589-.12012.06054-.15235.043-.03418-.01757-.04882-.03808-.04785-.06054a.3098.3098,0,0,1,.03906-.10352.81692.81692,0,0,1,.083-.13281.391.391,0,0,1,.11426-.10156A.49138.49138,0,0,1,192.08008,65.17793Z" transform="translate(0.14641 -7.66908)"/><path class="7d228dab-ba4e-4164-a80e-17fa85d7a0f2" d="M194.20605,66.02852c.1504.00683.23926.043.2627.10839a.48148.48148,0,0,1,.01855.23926.31157.31157,0,0,1-.16406.22559,1.86079,1.86079,0,0,1-.36719.15429.34035.34035,0,0,1-.1123.01172.57738.57738,0,0,1-.08008-.01269.4893.4893,0,0,1-.0498-.0166c-.01172-.00489-.01953-.00391-.02149.002a.386.386,0,0,0-.085.1875.26831.26831,0,0,0,.041.18652.23906.23906,0,0,0,.13379.11231.42.42,0,0,0,.168.01562,2.34376,2.34376,0,0,0,.33691-.07617,1.12867,1.12867,0,0,0,.34668-.14355c.06933-.04981.13379-.09766.19726-.14454q.0923-.0703.02344.00293c-.04785.04883-.10449.10743-.17285.17579a1.61621,1.61621,0,0,1-.248.20019c-.09863.06348-.17675.11231-.23828.14551a.85668.85668,0,0,1-.23437.082.57789.57789,0,0,1-.27735-.00293.50541.50541,0,0,1-.19336-.08594.71428.71428,0,0,1-.11132-.11816.52378.52378,0,0,1-.07618-.15332.56338.56338,0,0,1-.01171-.22949.80816.80816,0,0,1,.10449-.30176,1.0908,1.0908,0,0,1,.19043-.25879,1.25585,1.25585,0,0,1,.26172-.19434A.85237.85237,0,0,1,194.20605,66.02852Zm-.0332.30175c-.01465-.01757-.05273-.01465-.11816.00977a.36786.36786,0,0,0-.14649.08887c-.0332.03613-.042.06347-.02636.084q.0249.0293.11718-.00879a.70856.70856,0,0,0,.15039-.08008Q194.208,66.38154,194.17285,66.33027Z" transform="translate(0.14641 -7.66908)"/><path class="7d228dab-ba4e-4164-a80e-17fa85d7a0f2" d="M196.88477,65.23359a.36391.36391,0,0,1,.26757-.083.12807.12807,0,0,1,.10938.10839c.00683.05567-.00977.083-.05176.083q-.06006-.00145-.28711.35156-.22412.353-.26367.4375a.63362.63362,0,0,1-.085.14551.368.368,0,0,0-.05957.10156c-.00781.02637.02246.03223.0918.01758.06835-.01465.1748-.11621.31933-.30761.14746-.19141.1543-.19434.02539-.01075-.12793.1836-.23437.33008-.32226.43848-.08594.1084-.14356.165-.17188.16992a.34417.34417,0,0,0-.10644.0459.51488.51488,0,0,0-.1211.10059,1.68437,1.68437,0,0,0-.14648.20019,1.96231,1.96231,0,0,0-.18653.38867,1.86057,1.86057,0,0,0-.11328.41114c-.01367.10644-.0332.167-.05859.17968a.29283.29283,0,0,1-.10254.02442.11609.11609,0,0,1-.08008-.00977.23778.23778,0,0,1-.042-.10644.716.716,0,0,1-.00391-.251,2.56865,2.56865,0,0,1,.1084-.44336c.0586-.1875.06543-.28711.01856-.29883-.04493-.01269-.11914-.03613-.21778-.07129a1.00678,1.00678,0,0,1-.22949-.10546.735.735,0,0,1-.13183-.11426.30137.30137,0,0,1-.07129-.14453.48525.48525,0,0,1,.002-.1836,1.55967,1.55967,0,0,1,.12793-.33105.73827.73827,0,0,1,.24121-.31641.569.569,0,0,1,.22266-.09668.12507.12507,0,0,1,.12988.05664.142.142,0,0,1,.00293.14356,1.025,1.025,0,0,1-.13965.20019,1.053,1.053,0,0,0-.14062.2002,1.11562,1.11562,0,0,0-.05957.16308.11586.11586,0,0,0,.04492.13477.50066.50066,0,0,0,.168.07422.95532.95532,0,0,0,.18652.02929.30462.30462,0,0,0,.16016-.03515,3.1921,3.1921,0,0,0,.43457-.61328A2.54854,2.54854,0,0,1,196.88477,65.23359Z" transform="translate(0.14641 -7.66908)"/><path class="7d228dab-ba4e-4164-a80e-17fa85d7a0f2" d="M198.51562,65.80391a.4054.4054,0,0,1,.27247.05371c.10253.05273.13769.10058.10546.1416a.24648.24648,0,0,1-.15234.083.85958.85958,0,0,0-.20605.07129,2.17959,2.17959,0,0,0-.36524.26855,1.82187,1.82187,0,0,0-.38965.4209,2.21311,2.21311,0,0,0-.17382.3125.63231.63231,0,0,0-.05274.15625c-.00391.03125.02441.042.084.03027a.373.373,0,0,1,.207.03223.70785.70785,0,0,1,.20215.126.57454.57454,0,0,1,.13378.18554.37831.37831,0,0,1,.01856.24121c-.01953.08789-.09961.166-.23926.23535a.88242.88242,0,0,1-.33984.1084.40966.40966,0,0,1-.23633-.0625c-.07129-.04492-.12109-.07812-.14941-.10058a.23413.23413,0,0,1-.06348-.08985,1.08467,1.08467,0,0,1-.04785-.18066,1.18086,1.18086,0,0,1-.02637-.22754.21857.21857,0,0,1,.01465-.12012,1.80194,1.80194,0,0,0,.09179-.26758,2.14631,2.14631,0,0,1,.14063-.36328,2.17944,2.17944,0,0,1,.19824-.29589,2.97066,2.97066,0,0,1,.29883-.33692,2.313,2.313,0,0,1,.251-.22168,1.42411,1.42411,0,0,1,.19726-.11816A.95413.95413,0,0,1,198.51562,65.80391Zm-1.02343,1.84375c-.0293-.002-.03907.02246-.0293.07226a.78969.78969,0,0,0,.02832.10938.14473.14473,0,0,0,.0459.05957.32508.32508,0,0,0,.11621.04785.17482.17482,0,0,0,.12988-.00586.14257.14257,0,0,0,.06446-.07227.0691.0691,0,0,0-.02149-.07714.64159.64159,0,0,0-.083-.06446.36881.36881,0,0,0-.125-.0498A.72679.72679,0,0,0,197.49219,67.64766Z" transform="translate(0.14641 -7.66908)"/><path class="7d228dab-ba4e-4164-a80e-17fa85d7a0f2" d="M199.59961,66.08418a.71711.71711,0,0,1,.26953.02539,1.03946,1.03946,0,0,1,.26074.08594.836.836,0,0,0,.14844.07226.8455.8455,0,0,1,.23438.19141.83309.83309,0,0,1,.18164.23242.19222.19222,0,0,1,.01464.11035.14121.14121,0,0,0-.00195.0752.1989.1989,0,0,1-.02734.1123.51476.51476,0,0,1-.08985.13184.91849.91849,0,0,1-.11425.09473.25156.25156,0,0,0-.08594.09082.09766.09766,0,0,0,.02148.11132.36054.36054,0,0,1,.06446.13672.28332.28332,0,0,1-.0127.16211.79527.79527,0,0,1-.19238.24219,1.78054,1.78054,0,0,1-.42969.29394,2.28112,2.28112,0,0,1-.42871.17969,1.44356,1.44356,0,0,1-.20215.043c-.02734.001-.042-.01465-.043-.0459a.5312.5312,0,0,1,.00586-.084.14326.14326,0,0,1,.03613-.07031,1.0691,1.0691,0,0,1,.082-.082,1.26181,1.26181,0,0,1,.26269-.14453,1.93893,1.93893,0,0,0,.38086-.2334,1.34683,1.34683,0,0,0,.20508-.17871c.02148-.02832.02832-.05078.02051-.06543-.00586-.01464-.03614-.02929-.08985-.04394a1.32041,1.32041,0,0,0-.43359.04883,1.084,1.084,0,0,1-.40625.0459.15014.15014,0,0,1-.07129-.07618.16.16,0,0,1,.02246-.13281.24145.24145,0,0,1,.11621-.11523.53237.53237,0,0,1,.15332-.043c.05664-.00684.12305-.01953.20313-.03711a1.51032,1.51032,0,0,0,.34082-.14063,1.76955,1.76955,0,0,0,.293-.1748.09967.09967,0,0,0,.03711-.127.51155.51155,0,0,0-.15821-.1543,1.038,1.038,0,0,0-.29492-.14453.81854.81854,0,0,0-.25781-.05078.37819.37819,0,0,0-.19336.07129c-.06836.04687-.11914.06054-.15235.043-.03417-.01757-.04882-.03808-.04785-.06054a.32558.32558,0,0,1,.03907-.10352.75948.75948,0,0,1,.084-.13281.38875.38875,0,0,1,.11328-.10156A.5326.5326,0,0,1,199.59961,66.08418Z" transform="translate(0.14641 -7.66908)"/><path class="7d228dab-ba4e-4164-a80e-17fa85d7a0f2" d="M202.54883,65.48848a.30178.30178,0,0,1,.26562-.02149.50809.50809,0,0,1,.16114.13086.5305.5305,0,0,1,.09179.16406.17852.17852,0,0,1-.04.17481c-.04589.06055-.084.07324-.11621.03711a.59223.59223,0,0,0-.13476-.10449.15959.15959,0,0,0-.16992-.00391.842.842,0,0,0-.19825.19336,4.57111,4.57111,0,0,0-.28027.41211,3.25651,3.25651,0,0,0-.2168.38769c-.03418.082.00489.12891.11817.14063.11523.01074.24511.02637.38867.04687.14453.01953.42871.04981.84863.08985.4209.04.46192.04492.1211.01172a4.62089,4.62089,0,0,0-.8125-.02246c-.20118.01953-.3379.0332-.40918.043-.07032.00977-.14649.02149-.22461.03711a.35457.35457,0,0,0-.15625.05664,1.04684,1.04684,0,0,0-.09375.09375,8.81148,8.81148,0,0,0-.418.82618c-.24317.50878-.39258.82226-.4502.9375a.62347.62347,0,0,1-.18164.24121.27546.27546,0,0,1-.2207.043.23054.23054,0,0,1-.17285-.17188c-.03223-.09863-.04-.15918-.02149-.18262.01758-.02441.03125-.01757.04395.02149a.12674.12674,0,0,0,.06543.08105.08735.08735,0,0,0,.10058-.02344,9.06608,9.06608,0,0,0,.52442-.98339q.4702-.936.248-.8711c-.14746.043-.207-.001-.17773-.13379.02637-.13281.09961-.19433.21582-.18457a.44608.44608,0,0,0,.22363-.01562,1.54884,1.54884,0,0,0,.23633-.37012c.12305-.22754.22363-.39746.29688-.50976a3.53926,3.53926,0,0,1,.249-.32813A.98736.98736,0,0,1,202.54883,65.48848Z" transform="translate(0.14641 -7.66908)"/><path class="7d228dab-ba4e-4164-a80e-17fa85d7a0f2" d="M203.7373,66.41328a.42831.42831,0,0,1,.25879-.00293.43423.43423,0,0,1,.14551.09277.26683.26683,0,0,1,.07129.14454.11.11,0,0,1-.05664.1289.20029.20029,0,0,1-.165.00684.23935.23935,0,0,0-.16894,0,.7416.7416,0,0,0-.20313.14941.89029.89029,0,0,0-.16406.19043.43282.43282,0,0,0-.04981.1416.29724.29724,0,0,0,.00489.11621.0563.0563,0,0,0,.06933.04.5342.5342,0,0,0,.13477-.03711c.05176-.02148.17969-.07128.38476-.15136a2.30156,2.30156,0,0,0,.44043-.21192,1.42284,1.42284,0,0,0,.20117-.16211,1.24866,1.24866,0,0,0,.14551-.19433c.05176-.084.0127-.23242-.11914-.44629s-.12207-.20313.03028.03223a1.991,1.991,0,0,1,.24218.44335.82923.82923,0,0,1,.01172.19239.306.306,0,0,1-.05469.16992,1.24605,1.24605,0,0,1-.24316.21484,2.07844,2.07844,0,0,1-.33887.21778,2.84406,2.84406,0,0,1-.2998.126c-.10449.03809-.2334.09082-.38574.15821-.1543.06738-.23926.125-.25879.17187a.632.632,0,0,0-.0166.25,1.15552,1.15552,0,0,1-.0254.33692.52243.52243,0,0,1-.10351.23144.358.358,0,0,1-.14356.10547.62155.62155,0,0,1-.17382.04.68584.68584,0,0,1-.24512-.03613.56433.56433,0,0,1-.23047-.12305.3655.3655,0,0,1-.10352-.16211.60446.60446,0,0,1,.0293-.28418.679.679,0,0,1,.21094-.34082,1.89235,1.89235,0,0,1,.23047-.1875,1.10417,1.10417,0,0,0,.13086-.09473.22147.22147,0,0,0,.0664-.15527.892.892,0,0,0,0-.18457.83754.83754,0,0,1,.19727-.55371,1.53036,1.53036,0,0,1,.249-.23926A.84757.84757,0,0,1,203.7373,66.41328Zm-.80761,1.75c-.0166-.01465-.04688-.01172-.09082.00977a.32842.32842,0,0,0-.11426.10156.30911.30911,0,0,0-.05664.13574.116.116,0,0,0,.05469.11231.208.208,0,0,0,.13086.041.12532.12532,0,0,0,.10644-.085.3.3,0,0,0,.03418-.14941.32525.32525,0,0,0-.02344-.1045A.21131.21131,0,0,0,202.92969,68.16328Z" transform="translate(0.14641 -7.66908)"/></svg>