<svg id="552f42a5-8d8b-458d-900a-5be93293a034" data-name="Calque 2" xmlns="http://www.w3.org/2000/svg" viewBox="0 0 212 67"><defs><style>.\39 50d73f6-03a8-47f0-a64e-eaae164aae94{fill:#fff;}</style></defs><title>lac</title><g id="73d19bc1-cdc8-4d23-afc2-a49808704fe3" data-name="44"><path class="950d73f6-03a8-47f0-a64e-eaae164aae94" d="M15.4,31.6c.1-2.4-.4-1.2,0,.5s.9.1.8-.2c-.1-4.4.4,1.3.4,1.8s.8.1.8-.2.7-3.6-.3-3.2.5,4.9.5,5.1.8.2.8-.1-.1-4.4.3-6c-.1.5.4,3.4.5,4.5s.8.2.8-.1-.1-5.5.6-6.6c-.8,1.2-.3,4.7-.2,6.7s.3,1.9.7-.3-.2-5.1.7-6.9c-.5.9.3,4.4.2,6.1s-1.2,4.1.3,2.9.7-6.4.7-7.4c-.2-4.2,0-.2.1,1.1a36.9,36.9,0,0,1,.1,4.7c-.6,1.6-.5,2.1.5,1.7-2.1-1.8,1.6-7.3.6-9.3a24.8,24.8,0,0,1,.2,3.8c.1,1.3-.5,8.6.9,3.6.6-2.1.3-4.9.4-7.1s1-4.2-.3-3.3.3,8.6.3,9.6c0,2.6,0,5.2-.1,7.8,0,.4.8.2.8-.1.6-4.5,1.1-9,1.3-13.6,0-.5.4-5.6.1-5.8s-.3,3-.3,3.6a87.8,87.8,0,0,1-.3,14.5c-.1.3-1,5.3-.9,5.4s1-4.4,1-5c.4-4.2.8-8.3,1.3-12.4a39,39,0,0,0,.8-5.7c-.1-4.2-.4-.5-.5,1.1-.4,8.5-1,17-.8,25.5.1.4.8.3.9-.1,1.5-11.3,3.7-22.2,1.6-33.6,0-.3-.9-.1-.8.2a59.9,59.9,0,0,1,.8,15.8c-.5,4.8-2.4,10.3-2.1,15,.2,2.8.4-2.9.5-3.7,0-2.5.1-5,.2-7.5L30,17.9c0-.4-.8-.3-.8.1-1.4,9.5-2.4,19-3.1,28.6-.1.3.7.2.8-.1a86.3,86.3,0,0,0,1-27.3c-.1-.3-.9-.1-.9.2.1,3.2,0,6.5-.2,9.7,0,1.3-.6,9.7-.6,9.7,1.5-.4.1-15.5,0-17.5-.1-.3-.8-.2-.9.1l-1,16.1c0,.3.8.2.9-.1a55.6,55.6,0,0,0-.5-12.9c0-.3-.7,0-.8.2a38.5,38.5,0,0,0-.8,13.1c0,.3.8.1.8-.1a59.1,59.1,0,0,0-.6-13.3c-.1-.3-.8-.1-.8.1l-1.2,13c0,.4.8.2.9-.1.7-4.3,1.1-8.4-.3-12.6-.1-.3-.8-.1-.8.2L19.9,37.1c0,.4.8.2.9-.1a32.3,32.3,0,0,0-.2-11.6c-.1-.3-.8-.2-.8.1,0,2,.3,4.7-.4,6.6.9,0,1-.5.3-1.6a15.5,15.5,0,0,0-.7-3.1c-.1-.3-.8-.1-.8.1s-.5,6.1-.2,5.9-.2-4.2-.3-5-.8-.2-.8.1a26.5,26.5,0,0,0,.1,3.3,17.2,17.2,0,0,0-.5-3.6c-.1-.3-.8-.1-.8.2-.6,2.8.2,2.1-.2.2-.1-.3-.8-.2-.8.1v3c0,.4.8.2.8-.1Z" transform="translate(0.1 -7.7)"/></g><g id="6ed5c393-2d8a-4fc8-a2f4-0ba89f7bab40" data-name="43"><path class="950d73f6-03a8-47f0-a64e-eaae164aae94" d="M30.3,14.4a175.3,175.3,0,0,0-.8,33.2c0,.4.8.1.8-.1A107.9,107.9,0,0,0,32.2,17c0-.4-.8-.2-.8.1q.2,13.8-.9,27.6c0,.4.8.2.8-.1.9-5.1,1.5-10.2,2-15.3.1-1.9.3-3.9.4-5.8s.1-2.6.1-3.9-1.3.4-.8,1.9c-1.1,3.9-1.4,8.9-1.8,12.9a78.4,78.4,0,0,0,.3,13.7c.1.4.8.1.9-.2A145.6,145.6,0,0,0,35,17.7c0-.4-.8-.3-.8,0-1.3,9.6-2.4,19.1-1.9,28.8,0,.4.7.2.8-.1s4.4-27.2,3-27.2-.4,6.1-.4,7.5,0,3.8-.1,5.6c-.4,4.4-1.7,8.6-.9,12.9,0,.4.7.2.8-.1.8-6.4,1.5-12.8,1.8-19.2.2-3-.1-9.4.1-2.2A58.9,58.9,0,0,1,36.5,34c-.2,1.1-1.5,8.4-.8,8.4s1.4-6.5,1.6-7.6c1.1-5.4,1.9-10.5.5-15.9-.1-.3-.8-.2-.8.2a92,92,0,0,0,1.3,24c.1.4.8.1.8-.2a24.8,24.8,0,0,0,.3-10.5c-.2-2-.6-4-.8-6.1s.4-4.4.1-6.3-.4-.7-.4,1.1-.1,2.3-.1,3.4.2,5,.3,7.4l.7,15.8c0,.4.7.3.8-.1,2.2-9.3,1.5-18.8.4-28.3,0-.3-.8-.1-.8.2a118.4,118.4,0,0,0,1.5,22.2c.1.3.8.1.8-.2-.1-3.2-.1-6.5,0-9.7s1.2-7.4.9-10.8-.4.3-.5,1.1a40,40,0,0,0,0,4.9c-.1,1.1-1.2,10.2-.5,10.7s.8-6.6.9-7.6a59.4,59.4,0,0,1,1.5-9.4c-1.4,5-.9,12.6-1.1,18.4,0,.4.8.2.8-.1l.7-11c.1-1.6.3-3.3.4-4.9,0-4.6-.3-.2-.5.7-.7,5.1-2,10.3-.5,15.4.1.3.9.2.9-.1s1.4-17,1.4-17-.6,5.5-.7,6.2l-.2,10c0,.4.8.2.8-.1.1-2.5.2-5,.4-7.5s.3-2.5.4-3.7.3-5.7.5-2.7c.4,5.3-.7,11-1.1,16.2,0,.4.8.2.8-.1l1.3-8.2c.2-1.4,1.9-7.2,1.2-8.2.5.7-.1,6.3-.2,7.9a60,60,0,0,1-1.1,9.6c-.1.5.7.3.8,0a49.7,49.7,0,0,0,2.4-18.7c0-.4-.8-.3-.8,0L49.6,42c0,.4.7.2.8-.1,1.4-5-.4-9.7.1-14.8s.6.4.8,2.3c.3,3.9.4,7.8.4,11.7,0,.4.8.2.8-.1,1.1-6.5,1-12.9.8-19.4,0-.4-.8-.3-.8,0L51.8,50c0,.4.7.2.8-.1,2.2-8.2,0-16.4,1.3-24.7.2-1.9.7-5.1.1-.7-.2,1.9-.2,3.9-.3,5.8L53,45.9c0,.4.8.3.8-.1.9-6.3,2.1-13,2-19.4,0,0,0-2.9-.5-2s.4,3.6.5,4.5A91.4,91.4,0,0,1,56,40.6c-.1.4.8.3.8-.1l1.7-20.2c.1-.4-.7-.2-.8.1-1.1,3.3-.8,6.4-.5,9.8A81.3,81.3,0,0,1,57,45.8c0,.4.8.3.8-.1a117.6,117.6,0,0,0,1.5-13.3c.2-2.6.3-5.1.3-7.7,0-.5-.7-5.7-.1-3.1,1.7,8.3-1.7,16.5-1,24.9,0,.3.8.1.8-.2.8-12.1,1.5-24.3,2.1-36.5,0-.4-.8-.3-.8.1-.5,10.8-1.8,21.8-1.9,32.7,0,1.6,0,2.5.4.3a19.5,19.5,0,0,0,.3-3.4c.2-2.3.7-4.6,1-6.9.6-4.8.7-9.2-.9-13.7-.1-.3-.8-.2-.8.1.1,3.9.1,7.7-.1,11.6s-1.3,7.8-1,11.4c.1,1.9-.2,3.1.6-.2.4-1.5.1-3.3.1-4.9,0-3.4-.4-6.8-.5-10.2-.1-.5-.5-4.5.2-4.8-1,.5-.7,2.9-.8,4-.3,3.6-1,7.4-.9,11s.3,2.4.6,0a32.5,32.5,0,0,0-.1-5.4c-.2-3-.5-6.1-.9-9.1,0-.3-.8-.2-.8.2-.2,3.9-.4,7.8-.7,11.6l-.6,5.9c-.1.6-1.1,4.1.1,3.8s.5-10.6.6-11.7L55,20.5c.1-.4-.7-.2-.8.1-2.3,7-1.1,14.1-1.3,21.3,0,1.5-.7,10-.2,4.2.4-4,.2-8.2.3-12.2l.2-5.7c0-1,.8-5.2-.7-4.6s0,10.5-.1,11.7-.6,3.1.1,3.9,0-4.3-.1-5.5c-.2-3.6-.5-7.2-.9-10.9-.1-.3-.7-.1-.8.1-1.9,5-.3,9.6-.5,14.7,0,.5-.5,3.6.1,2.7s.4-2.9.5-4.1c.2-3.4,1-7.2.6-10.6s-.3-.9-.5.7-.1,2.9-.2,4.3a34.1,34.1,0,0,1-.6,4.3c-.1.4-1.3,4.7-1.2,5s1-2.7,1.1-3.2.3-3.2.4-4.9a78.7,78.7,0,0,0-.4-9.7c0-.4-.8-.2-.8.1L47.6,32.3c-.2,1.5-.6,3-.7,4.5-.1,3.1.3,1.8.6-.2s.5-6.3.7-9.4.9-4.2-.4-5.9c-.2-.2-.8-.1-.8.2-.3,1.8-1.9,14.9-1.2,14.8s.8-14.3.9-16.1-.8-.3-.8.1a71.2,71.2,0,0,0-1.6,10.3c-.2,1.5,0,11.5-.2,4C44,29.3,45.9,24.3,45.2,19c0-.3-.8-.1-.8.2l-.7,9.9-.3,5c0,.2-.5,4.1.6,3s.3-6.8.3-8.2l.4-10.1c0-.4-.7-.2-.8.1a69.2,69.2,0,0,0-2.2,20.7c0,.5.8.3.8,0,.5-7.2.7-14.3.6-21.5,0-.4-.7-.3-.8.1q-.9,6.3-1.2,12.6c0,2-.1,4-.1,5.9s.6,4.7.5,2c-.1-4.6-1.1-9.1-1.1-13.7-.1-1,.6-4.1-.6-3.6a39.5,39.5,0,0,0,.6,5.7,83.1,83.1,0,0,1,0,13.2c0,.4-1,5.4-.8,5.6s.2-3.6.1-4.2c-.3-7.8-1.6-16.2,0-24,.1-.4-.7-.2-.8,0-1.6,4.2-1.3,8.3-.6,12.6a45.9,45.9,0,0,1,.7,9.1c-.4,5.3-.8-2.4-1-3.8a82.5,82.5,0,0,1-.5-11.1c0-.8-.1-3.3,0-3.7s.3,3.6.3,4.8c-.1,6.3-2.3,12.4-2.6,18.6-.1.4.8.3.8-.1.7-8.7,3.2-17.2,1.6-26-.1-.3-.8-.2-.8.1-.1,4.5-.4,9-.7,13.5l-.6,6.8c-.1.9-1,7.7-.3,3a115.4,115.4,0,0,0,.9-24.2c-.1-.3-.9-.2-.9.1a120.4,120.4,0,0,1-.5,14.7c-.2,1.8-.4,3.6-.7,5.4s-1.8,5.6-1.3,7.2c-.3-1,.2-4.6.3-6a54.4,54.4,0,0,1,.3-5.7c.1-1.7.7-13.2,1.2-13.4s-.6,11.7-.8,13.4-.4,3.7-.6,5.6-1.8,6.2-1.2,7.6c-.7-1.6-.1-5.9-.1-8a54.8,54.8,0,0,1,.5-5.7c.6-5,1.7-9.8,1.6-14.8,0-.4-.8-.3-.8.1-.2,4.5-.4,9-.8,13.5l-.9,7.6c-.2,1.1-1.4,4.1.1,3.7s.6-12.2.7-13.7.1-4.6.1-6.9-.7-5.6-.6.8a99.5,99.5,0,0,1-.4,13.4c-.2,1.9-.5,3.8-.8,5.7s-.2,7-.5-.3a156,156,0,0,1,1.2-27.3c0-.4-.8-.3-.9.1Z" transform="translate(0.1 -7.7)"/></g><g id="c8764979-3f1a-4823-a61c-9af8bfdc26a4" data-name="42"><path class="950d73f6-03a8-47f0-a64e-eaae164aae94" d="M60.4,9.4l-.6,19.2c-.2,5.3-.6,10.5.9,15.6.1.4.7.2.8-.1a39.7,39.7,0,0,0,.9-13.3c-.1-2.2-.3-4.5-.4-6.8s.5-4.6.2-6.6.5-2-.6-1.5-.3,2.4-.3,3.6-.1,4.9,0,7.3c.1,5.2.3,10.5.5,15.8,0,.4.8.3.8-.1-.1-8.5,1.1-17,.9-25.4.1,7.7.3,16.8-.7,25.1,0,.4.8.3.9-.1a141.7,141.7,0,0,0,1.7-25.2c0-.4-.9-.3-.8.1L65,39.7c0,.4.8.3.8-.1l1-13.2c.2-2.5.6-5.1.6-7.6,0-4.8-.3,1.4-.4,2.4-.2,4.1-1.1,8.1-1.1,12.3S67,41.7,67,45.9c0,.4.8.3.8-.1q.2-7.6.6-15.3c.2-2.6.4-5.2.7-7.7,0-1,.3-9,.1-3.9s-.1,10-1,15-1.5,7.9-.6,12.1c0,.4.7.2.8-.1.6-3.3,4.8-28.2,2.3-28.6,1.4.2-.1,14.2-.4,15.7-.7,4.1-1.5,7.8-.7,12,0,.3.8.2.8-.2l1.1-13.1.5-6.6c.1-1.1,1.1-5-.4-4.5s-.4,13-.4,13.9a40.5,40.5,0,0,0,.7,9.8c.1.4.8.2.8-.1a41.1,41.1,0,0,0,.6-11.6c-.1-1,.2-14.2-.5-14.4s-.8,11.2-.7,12.5c.5,5.7,2,11.2,1.3,16.9-.1.4.8.3.8-.1,1-5.7,2.2-11.5,2.7-17.4a15.6,15.6,0,0,0-.3-5.3c-.3-1-.7-1.8-1-2.7s-.1-3.4-.6-5.3c0-.3.3-2.6-.5-1.2s0,2.9,0,3.7V45.8c0,.5.8.4.8,0l1.6-16.9c.4-4.8,1.2-9.6.2-14.3-.1-.4-.8-.2-.8.1a129.8,129.8,0,0,0,0,16.5c.1,2.4.4,4.8.6,7.2s.3,10,.8,4.7.8-10.8,2-16.2,2.3-9.3.1-13.9c-.1-.3-.8-.2-.8.2-.3,12-1.2,24.3.7,36.2.1.4.8.2.8-.1A297.4,297.4,0,0,1,82,8.2c0-.4-.8-.3-.9.1-1.4,7.2,0,14.3-.2,21.6s-1,12.6.7,18.9c.1.4.9.2.8-.1a67.2,67.2,0,0,1,.2-11c.4-3.2,1.3-6.2,1.3-9.5,0-6.3.8-13.4-.7-19.5-.1-.4-.8-.2-.9.1A259.4,259.4,0,0,0,83,49.2c0,.4.8.2.8-.1C84.9,35.4,86.1,21.7,85.7,8c0-.4-.8-.3-.8.1.2,8.7-.2,17.5-.8,26.2-.3,3.8-1.2,8-.9,11.8s.3-.3.2-1.9-.4-5.7-.6-8.5c-.3-8.3-.2-17,.1-25.1-.3,7.5.9,16.3-.6,23.9A40.3,40.3,0,0,0,81.5,46c.3,3.3-.1-3.4-.2-4s0-4.1.1-6.1a176.2,176.2,0,0,0,0-24.1c0-.3.7-2.9-.5-1.6s-.2,2.5-.2,3-.4,3.9-.5,5.8c-.3,4.6-.6,9.1-.7,13.7s-.6,8.7,0,12.7.6,2.3.3-.1-.4-5-.5-7.5c-.1-4.9.1-9.9.2-14.9.1-2.2-.1-4.6.2-6.8-.2,1,0-1.6-.2-1.5s.6,4.5.6,5.3c-.2,4.1-1.7,8.3-2.4,12.4a88.3,88.3,0,0,0-.9,14.5c0,.5.8.4.8,0,1.1-7-.7-14.2-.8-21.2-.1-2.8.3-6.9-.2-9.1.9,3.9-.4,9.4-.7,13.4L74.8,41.1c-.1,1.2,0,4.6.5,1.8a52.3,52.3,0,0,0,0-5.6V13.6c0-.4-.8-.3-.9.1a34.4,34.4,0,0,0-.3,5.6c.2,2.3,1.3,4.1,1.8,6.4,1.1,5.9-1.5,12.2-1.9,18,0,.1-.3,3.2.4,1.9s0-3-.1-3.8-.6-4.6-.9-6.8c-.9-6.3-1.1-12.5.7-18.6.1-.4-.7-.3-.8,0-2.6,7.6-.4,15.2-.8,23,0,1,.1,5.6-.4,1.5a35.2,35.2,0,0,1-.1-6.5c.1-5.3.3-10.6.4-15.8,0-.5-.8-.4-.8,0l-1.2,15L70,39.3,69.7,43a11.6,11.6,0,0,0,.3-3.2c.5-4.1,1.6-8,1.8-12.1a85.7,85.7,0,0,0-.4-12.4c0-.3-.8-.2-.8.1q-.1,7.8-.9,15.3l-.9,7.7c-.1.8-.8,8.3-.9,4.1s1.5-9.5,1.9-14.3a83.1,83.1,0,0,0,0-13.2c-.1-.3-.8-.2-.9.2-.5,5.4-1,10.8-1.4,16.3-.1,2.5-.3,5.1-.4,7.7A24.1,24.1,0,0,0,67,43c-.1-.3.3,2.1.8,1.1s-.6-5.1-.8-6.6A40.2,40.2,0,0,1,67,29c.4-4.7,1.3-9.3.6-14,0-.4-.8-.2-.8.1-.2,2.3-1.3,22.6-1.4,22.6s.2-9.9.2-11.3.3-4-.1-5.7-.3-3.1-.9.2-.2,7.8-.5,11.6c-.2,1.8-.8,4-.7,5.8.2,3.5.2,1.6.7,0,1-3.4.5-8.1.4-11.6a89.2,89.2,0,0,0-.8-11.6c0-.4-.8-.2-.8.1-.4,4.6-.8,9.1-1,13.7-.1,2.3-.1,4.6-.2,6.8s-.8,5.3.8,4.8-.3-13-.4-13.8a59.2,59.2,0,0,1,.7-12.6c.1-.4-.8-.3-.8,0-1.1,4.8-.9,9.4-.6,14.2.1,1.9,1.5,13.3-.3,14.1s-.5-14.6-.4-15.8l.5-17.2c0-.4-.8-.3-.8,0Z" transform="translate(0.1 -7.7)"/></g><g id="f9f55d95-2744-4094-98e3-21e04ca733ac" data-name="41"><path class="950d73f6-03a8-47f0-a64e-eaae164aae94" d="M84.8,8c-.2,3.2.6,6.3.7,9.6s-.6,7-.7,10.4c-.3,7.2.5,14.4,1.3,21.6,0,.2.9,0,.8-.2-.8-10,1.3-19.9.7-29.9a44,44,0,0,0-.6-7.3c-1-4.3-.4.5-.4,1.9.2,4.5-.4,9-.7,13.4a38.7,38.7,0,0,0,1.2,12.7c.5,1.9.3,4.6,1,6.4s.6-3.9.6-4.8a238.9,238.9,0,0,0,.5-30.5c0-.1-.8,0-.8.3a154.2,154.2,0,0,0,.8,37.8c0,.2.8,0,.8-.2.2-10.2.5-20.4,1.1-30.7.1-2,.3-4.8-.6-1s0,5.1-.1,7.5l-.2,14.8c0,.2.8,0,.8-.2,1-7.6,1.7-15.4,2.1-23.1.1-.1-.8,0-.8.2-.2,3.1-.3,6.1-.3,9.2s-.9,7.4.1,10,.5-.3.6-1.3,0-3.2.1-4.8a38.7,38.7,0,0,1,.3-4.8c.7-5.9.3-4,.3-1.6s-.3,6.8.3,9.7c.2.9.1,3.2.7,1s-.1-2.9,0-4.3,0-5,.9-6.7a6.3,6.3,0,0,0-.5,2.9c-.1,3.3.1,6.5.3,9.8,0,.2.8,0,.8-.2s-.3-10.7.2-11,.2,9.1.2,10.4.9,0,.8-.2c-.1-3.3.5-7.3.5-9.9,0,2.8.1,6.1.3,9.1,0,.1.8,0,.8-.2-.1-2.3.5-5.1,0-7.2s-.3,1.9-.3,2.3.1,3.1.1,4.7.8,0,.8-.2.4-6.5.4-6.6a29.8,29.8,0,0,0-.3,6c0,.2.8,0,.8-.1a9.3,9.3,0,0,0,.4-1.3,2.5,2.5,0,0,1,2-2.1c0,.2.5,0,.6,0s2.6,1.8,3.2,2,.8-.3,1.1-.2,3.2.8,5,.7,5-1.8,4.9,1.6c-.1.2.6,0,.7-.1l5.5.2c.1.2.8,0,.8-.1a1.7,1.7,0,0,1,1.1-1.6,1.1,1.1,0,0,0,.8-.2c.4-.4,3.3.2,3.8.6s.6-.1.8-.2l2.9-3.3c.1-.1-.6-.1-.8.1s-2.1,3.1-3.3,2.2-.5,0-.6.1a4.7,4.7,0,0,1-3.7-.7c-.1-.1-.8,0-.8.2-.5,2.8-1.2.8-3.3.9,0,0-3.1,1-2.8,1.1s-1-1.8-1.7-2.3-.3.1-.4.1a12.3,12.3,0,0,1-6.3.8,3,3,0,0,1-2.2-.8c-.1-.1-.5.1-.7.2l-1.7-1.7c.1-.1,0-.1-.1-.1s-2.5-1.3-3.8-1.1a2.4,2.4,0,0,0-1.3,1.1c-.3.4-.2,1.1-.4,1.4s.7.5.3-1.5V24.8c0-.1-.7,0-.8.2s-1.4,6.2-.8,6.9.7-2.3.7-2.3c.1-1.9,0-3.9,0-5.7,0-.2-.8,0-.8.2s-1.7,7.2-.7,8.2.6-3.9.6-3.9L98.1,23c0-.2-.8,0-.8.2s-1.9,10-1.1,10.1.4-9.3.3-10.6-.8,0-.8.2c-.2,2.4-.4,4.9-.5,7.4,0,.5-.4,4.9.6,3.5s-.2-4.7-.2-5.3c-.1-2.4,0-4.8.1-7.1,0-.2-.8,0-.8.1a50.2,50.2,0,0,0-1.2,15.4c0,.2.8,0,.8-.2,0-5.8-.1-11.6-.5-17.3,0-.2-.8,0-.8.1a68.7,68.7,0,0,0-1,19.2c0,.1.8,0,.8-.3-.2-5.1-.3-10.3-.2-15.5.1-.3.2-4.6.2-4.6s-.8,1.6-.9,2.3c-.5,2.8-.4,5.8-.7,8.7s-.8,5.1-.5,7.6.2-3,.2-2.9V30.3l.3-16.7c0-.2-.8,0-.8.2-.6,9.2-1,18.5-1.2,27.7-.1,1.1-.7,6,.4,5.8s-.7-5.4-.7-5.6c-.4-4.4-.7-8.9-.7-13.3s.5-8.9.5-13.3-.2-1.4-.3.3.1,5,.1,7.6c-.1,8.9-.7,17.7-1.3,26.6,0,.1.8,0,.8-.2,2-6.2-1.7-12.3-1.7-18.6S88,16.1,87,8.6c0-.2-.8,0-.8.2-.2,6.8.9,13.4.5,20.2-.2,3.5-.5,6.9-.7,10.3-.1,1.2-.5,9.2.7,8.2s-.8-8.3-.8-9.4a83.8,83.8,0,0,1-.2-11.2c.1-3.2.6-6.4.6-9.5s-.9-6.4-.7-9.6c0-.2-.8-.1-.8.2Z" transform="translate(0.1 -7.7)"/></g><g id="2e8f4a8b-8fec-4189-acad-60cd35b3293c" data-name="40"><path class="950d73f6-03a8-47f0-a64e-eaae164aae94" d="M148.6,32.9c.6-3.2,3.9-2,5.8-2.2s1-1.5,1.8-.7.7,0,.8-.2c.9-4.8.3-1,2.7-1.1h.6c1.7-.4,1.9-3.3,2.7-4.4,2.4-3.5,1,1.2,3.2,2.5a.6.6,0,0,0,.6-.1c1.2-.7,7.6-4.7,8.3-3.1s.7,0,.8-.2h.9c.1.2.7,0,.8-.2,2.7-3.9,3.2,3.2,4.1,4.7s.7,0,.8-.2c2.2-4.4,1.8-1.2,2.5,1.3.1.3.7,0,.8-.1.9-1.7,1-4.9,1.9-1.7.1.3.9.1.9-.2-.1-3.6.2-.1.5,1s.7-.1.8-.2,1.3-.7,1.9,1.2c.1.2.7,0,.8-.1s1.1-3.6,2.4-.9c.1.2.8,0,.8-.2.7-1.8.6-1.5,1.1.3.1.2.8,0,.8-.2s-.2-3.2.3-1.1c.1.2.8,0,.8-.2s-.1-1.9.2-.2.4,2.7.6,4,.7,0,.8-.1c1.1-3.4.9-4.6.8.2,0,.2.8.1.8-.2.3-3.3.3-5.6.8-.7.1.2.9,0,.9-.2s.3-5.7-.5-5.5.7,4.1.9,4.9.9,0,.9-.2a28.1,28.1,0,0,0-.8-7.1c0-.3-.8-.1-.8.2a14.7,14.7,0,0,0,1.4,4c.1.2.9,0,.9-.2a48.5,48.5,0,0,0-1.9-6.8c-.1-.2-.9,0-.8.2a22.9,22.9,0,0,1,1.5,5.1c.1.8,1-2.2-.7-.6s.8,4.2.7,3.6a27,27,0,0,0-1.2-4.9c-.1-.2-.8,0-.8.2s.2,5.2.4,5.5-.4-3.4-.4-3.2-.8,0-.8.2-.7,4.1,0,3.8-.3-2.6-.6-3.3-.8,0-.8.2c.1,6.2-.5.8-.8-1.8-.1-.2-.8,0-.8.2-.7,1.8.1,2-.7.6s-.8,0-.8.2c-.2,2.1.3,2.3-.4.5-.1-.3-.8,0-.9.1-.6,1.9-.5,1.4-1.6,0s-.8,0-.8.2c-.6,1.8-1.2,2.3-1.9.2-.1-.3-.8,0-.8.2-1.4,2.1-1.8-1.6-2-2.1s-.7,0-.8.2c-.5,2.5.2,1.7-.4-.1,0-.2-.8,0-.8.2-.9,3.8-1.4,4-2,0,0-.3-.7,0-.7.1-4.7,5.7-.1-2.3-4.5-3-1.8-.2-1.6,1.6-3.1.7a.8.8,0,0,0-.8.2c-.3.8,0,.7-.9-.1s-.8,0-.8.2-3,1-3.9,1.3-2.8,2-2.3,1.8q-2,1.6-2.1-.9L164.5,21c-.1-.2-.7,0-.8.2s-1.4,4.3-2.6,5.5-1.9.4-3.5-.5a.8.8,0,0,0-.8.2,2.6,2.6,0,0,1-.8,2.4c-.1-.2-.7,0-.8.2-1.3,2.6-6.7.1-7.4,4,0,.2.8.1.8-.1Z" transform="translate(0.1 -7.7)"/></g><g id="48838812-4ca4-43f8-8e2f-f357ce8345d1" data-name="39"><path class="950d73f6-03a8-47f0-a64e-eaae164aae94" d="M7.5,35.7c8.1.5,15.9-2,23.9-1.9s16.3.6,24.4,1.1c15.3.9,31.4,4.3,46.5,1.4,5.1-1,3.8-5.6-1.2-4.6-7.8,1.5-15.9.1-23.7-.6S62.5,29.9,55,29.5s-15-.9-22.5-.9-14.6,2.5-21.9,2c-3.4-.2-8.6,4.7-3.1,5.1Z" transform="translate(0.1 -7.7)"/></g><g id="3e5a7a29-0cba-4c0b-9aae-341887d2d9bf" data-name="38"><path class="950d73f6-03a8-47f0-a64e-eaae164aae94" d="M104.3,35.9l5.5-1.5c.4-.1,1.1-.6.2-.6h-3.8l.4.3c.3-.4.4-.7-.2-1l-1.4.6c.8.5.5.8-.9,1H98.8c-.3,0-1.8.7-1,.7,2.4,0,5.7.6,8-.2s2.1-1.7.5-2.1-1.7.5-1.4.6l.2.5c-.2.3.2.3.4.3h3.8l.3-.6-5.5,1.5c-.9.3-.8.8.2.5Z" transform="translate(0.1 -7.7)"/></g><g id="54aa7283-c54b-4167-8c94-7cd0f51b3b3b" data-name="37"><path class="950d73f6-03a8-47f0-a64e-eaae164aae94" d="M7.6,31.3a10.6,10.6,0,0,0-6.1.7c-.6.2-.7,1,0,1H7.2l.3-1.2a46.3,46.3,0,0,0-5.2.7c-.2.1-1,.5-.6.9a4.1,4.1,0,0,0,4,.9c.4-.1,1-.6.5-1a4.1,4.1,0,0,0-2.6-.9c-.7-.1-1.6,1-.5,1.1a4,4,0,0,1,1.8.7l.5-1a2,2,0,0,1-2.2-.5l-.6.9a26.3,26.3,0,0,1,4.8-.6c.6-.1,1.4-1.1.3-1.2H2.1v1A8.8,8.8,0,0,1,7,32.4c.8.2,1.7-.9.6-1.1Z" transform="translate(0.1 -7.7)"/></g><g id="c5bee4cc-c1cd-4a43-bb3d-878c37000df2" data-name="36"><path class="950d73f6-03a8-47f0-a64e-eaae164aae94" d="M6.5,34.5a25.3,25.3,0,0,1-5.5.1l.2.8a6.1,6.1,0,0,1,4.6-.8v-.7a3.4,3.4,0,0,1-2.4.6c-.6,0-1.7.9-.6,1a49.6,49.6,0,0,0,5.5.2l-.5-.4c-.2.6-1.8-.3-2.3-.4a3,3,0,0,0-1.6.2c-.9.3-.7,1.1.3.8L7.6,35c.4-.1,1.2-.8.4-.9a2.3,2.3,0,0,0-1.4.1l-.8.3H5.6c-.9.3-1.2,0-.9-1s1.9-.7,1-.9-3.4.6-2.7,2.2a1.7,1.7,0,0,0,1.7.9c.7,0,1.7-.9,2.3-.8l.4-.9-3.5,1,.3.8c.7-.2,1.6.4,2.3.6H7.8c.8-.2,1.4-.5,1.6-1.3s-.3-.4-.5-.4a34.1,34.1,0,0,1-5.5-.2l-.6,1a6.2,6.2,0,0,0,4-1.1c.3-.2.5-.6,0-.7A8.9,8.9,0,0,0,.1,34.9c-.4.3-.3.7.2.7a30.1,30.1,0,0,0,6-.2c.8-.1,1.4-1.1.2-.9Z" transform="translate(0.1 -7.7)"/></g><g id="57f63b34-8e49-443b-9c3e-54dc3c63e3a7" data-name="35"><path class="950d73f6-03a8-47f0-a64e-eaae164aae94" d="M103.7,32.7c4.7,2.8,10.8,1.8,16.1,1.8h71.3c.5,0,1.8-.8.7-.8H119.5c-4.6,0-10.2.8-14.2-1.6-.5-.3-1.9.4-1.6.6Z" transform="translate(0.1 -7.7)"/></g><g id="ec04306a-b1c1-416c-b165-f131005d6c6b" data-name="34"><path class="950d73f6-03a8-47f0-a64e-eaae164aae94" d="M195.4,34.9h9.2c.9,0,1.2-1.3.1-1.3h-9.2c-1,0-1.3,1.3-.1,1.3Z" transform="translate(0.1 -7.7)"/></g><g id="47b79683-9c7a-4e62-b9a4-43a69759cea4" data-name="33"><path class="950d73f6-03a8-47f0-a64e-eaae164aae94" d="M36.8,62.7c9.5-.3,19.2.2,28.5-1.8,12.6-2.7,26.9-.5,39.7.1s24.4-.1,36.1,2a34.5,34.5,0,0,0,11.1.2,84.5,84.5,0,0,1,20.1-.2c.2,0,1.6-.3,1.3-.6a11.3,11.3,0,0,0-3.4-2.8l-1.5.6,2.9,1.4c.3.1,1.8-.1,1.6-.5a11.1,11.1,0,0,0-5.6-6.6,1.5,1.5,0,0,0-1.6.5l-.8,2.2c-.2.4,1.3,0,1.4-.1,3.1-2.4,4.8,2.8,5.4,4.6s1.7,0,1.6-.4l-1.3-9.7-1.6.5a33,33,0,0,1,2.1,9.9c0,.3,1.6,0,1.6-.5A26.2,26.2,0,0,0,172,48l-1.6.5a10.7,10.7,0,0,1,4.2,4c.2.4,1.8-.2,1.6-.4a13,13,0,0,0-4.2-4.2c-.3-.1-1.8.1-1.6.5A26.6,26.6,0,0,1,172.8,62l1.6-.5a34.4,34.4,0,0,0-2.1-9.9c-.1-.4-1.7.1-1.6.5l1.3,9.6,1.6-.4c-1.2-4-4.3-7.3-8.3-4.3h1.5l.8-2.2-1.5.4a11.6,11.6,0,0,1,5.5,6.4l1.6-.5-3-1.4c-.4-.2-1.8.4-1.5.6a10.9,10.9,0,0,1,3.3,2.7l1.3-.6a94,94,0,0,0-15-.4l-7.4.8c-4.4.4-7.9-.4-12.1-1-11.4-1.5-23.3-1.1-34.7-1.5S81.3,58,70.4,59.3c-5.2.7-10.2,2.1-15.5,2.2L37.5,62c-.4,0-1.8.7-.7.7Z" transform="translate(0.1 -7.7)"/></g><g id="6f874a78-fdd7-47b3-b9ae-e441c580afca" data-name="32"><path class="950d73f6-03a8-47f0-a64e-eaae164aae94" d="M175,62.5c1.1-1,.8-2.3.6-3.6a2.9,2.9,0,0,1,0-1.6c.2-.7.2-.5.7-.2a13.9,13.9,0,0,1,2.1,2.1l.3-.4-3.1,1.7c-.4.3-1,.8-1,1.4s.5.7,1,.8l3.6.3c.4,0,1.9-.7,1.1-.8s-3.5.1-3.9-.6.9-1.1,1.4-1.5l1.9-1c.1-.1.4-.3.3-.5L178.3,57c-.4-.4-.7-.9-1.2-1.1a2.5,2.5,0,0,0-2.2.5c-2.3,1.5.4,4.5-1.4,6.2-.3.2.2.3.4.3s.8-.2,1.1-.4Z" transform="translate(0.1 -7.7)"/></g><g id="6aee2f45-1072-4787-ae2b-3a35c665285e" data-name="31"><path class="950d73f6-03a8-47f0-a64e-eaae164aae94" d="M180.7,62a81.4,81.4,0,0,0-3.1-11c-.2-.6-1.8-.1-1.6.5a67.6,67.6,0,0,1,3,10.9c.2.6,1.8.2,1.7-.4Z" transform="translate(0.1 -7.7)"/></g><g id="c34354fc-94fc-4499-92e2-7c7ce7da21a0" data-name="30"><path class="950d73f6-03a8-47f0-a64e-eaae164aae94" d="M181.1,61.8c-1-1.8-.4-3.1-.1-5a6.7,6.7,0,0,0,.1-2c-.1-.9-.8-1.8-.9-2.7s1-2,1.2-3-1.3-3.5.2-5.3a2,2,0,0,0-1.6.3c-1,1.1-.7,1.8-.6,3.2a7.9,7.9,0,0,1-.2,3.4c-.1.3-.5.5-.5.8-.2,2,.9,3.5.6,5.7s-.9,3.2.2,5,1.7-.2,1.6-.4Z" transform="translate(0.1 -7.7)"/></g><g id="9a0d4142-8efa-41f4-aa15-190d117a41ef" data-name="29"><path class="950d73f6-03a8-47f0-a64e-eaae164aae94" d="M182.1,50.2a5.8,5.8,0,0,0,1.7-2.1,3.5,3.5,0,0,0,.3-1.1c.1-.1.2-1.8.4-1.7s1.9-.6,1-1.1a2.2,2.2,0,0,0-2.7,1.2,15.5,15.5,0,0,0-.4,2.1,3.5,3.5,0,0,1-1.4,2c-.9.6.4,1.2,1.1.7Z" transform="translate(0.1 -7.7)"/></g><g id="f6d3fc5b-197f-4888-b5af-d3cdc7e1ed87" data-name="28"><path class="950d73f6-03a8-47f0-a64e-eaae164aae94" d="M179.7,63.5h5.5a6.1,6.1,0,0,0,3-.4c1-.6,1.5-2,.3-2.7l-.7,1.1,4.8-.5c.9-.1,1.2-1.3.1-1.2l-4.8.4c-.4.1-1.4.7-.7,1.1a1.5,1.5,0,0,1-1.9,1h-5.5c-.9,0-1.2,1.3-.1,1.3Z" transform="translate(0.1 -7.7)"/></g><g id="27f32395-aca3-4672-ba42-c4ce12b5d40f" data-name="27"><path class="950d73f6-03a8-47f0-a64e-eaae164aae94" d="M188,63.7c-47.2-1.8-94.5-4.6-141.7-1.6-.3,0-1.3.5-.8.8,3.1,1.7,6.1,1.1,9.4.6a151.2,151.2,0,0,1,20.2-1.3c12.5,0,25.1.6,37.7,1L149,64.4l18.1.6c2.4.1,7.3,1.1,9.6.3s-.6-.7-1.2-.7a35.1,35.1,0,0,0-5.6.1c-.6,0-1.7.9-.6.9l9.3-.2c.6,0,1.8-.9.7-.9l-65.9-2.2c-10.9-.3-21.9-.8-32.8-1-4.9,0-9.9,0-14.8.3s-14.1,3.3-18.9.6l-.8.8c47-3,94.2-.2,141.3,1.6.6,0,1.7-.9.6-.9Z" transform="translate(0.1 -7.7)"/></g><g id="bd074c1a-b499-4e87-a26d-164da69087f0" data-name="26"><path class="950d73f6-03a8-47f0-a64e-eaae164aae94" d="M79.2,63.8a54.6,54.6,0,0,1,18.9.5,17.5,17.5,0,0,0,6,.6c11.1-1.1,22.3-.2,33.5.1a467.6,467.6,0,0,1,61.3,5.9c.4.1,1.9-.6,1-.8-22-3.7-43.8-5.3-66.1-6-9.2-.3-18.7-1.3-27.8-.4-4.8.6-9-.8-13.8-1.1a54.1,54.1,0,0,0-12.7.5c-.7.1-1.4.8-.3.7Z" transform="translate(0.1 -7.7)"/></g><g id="787075ab-c269-4975-90ba-54f26727b87e" data-name="25"><path class="950d73f6-03a8-47f0-a64e-eaae164aae94" d="M126.4,65.8c27.9,1.1,55.8,3.3,83.5,6.5.4,0,1.9-.6,1.1-.7-27.8-3.2-55.6-5.4-83.6-6.5-.3,0-1.8.6-1,.7Z" transform="translate(0.1 -7.7)"/></g><g id="185c6243-6673-4dbf-8564-3fa4648e6eaf" data-name="24"><path class="950d73f6-03a8-47f0-a64e-eaae164aae94" d="M211.6,72l-81.4-6.5c-.4-.1-1.9.7-1,.7l81.4,6.6c.4,0,1.9-.7,1-.8Z" transform="translate(0.1 -7.7)"/></g><g id="6e00d9ed-2c28-4080-8d53-9347ae2d23d2" data-name="23"><path class="950d73f6-03a8-47f0-a64e-eaae164aae94" d="M128.8,68c14.2.8,28.6,1.3,42.7,3,11.8,1.3,23.3,4.9,35.1,1.6,1-.2.8-.9-.2-.6-12.9,3.5-26.5-1.2-39.5-2.4s-24.7-1.6-37.1-2.4c-.4,0-1.8.7-1,.8Z" transform="translate(0.1 -7.7)"/></g><g id="8e7d42ef-2595-4d03-8b28-0d0e03e36f91" data-name="22"><path class="950d73f6-03a8-47f0-a64e-eaae164aae94" d="M94.1,68.3c9-.1,17.9.3,26.9.8s19.9-1,26.3,4.2c.4.2,1.8-.4,1.6-.6-6-4.8-15.8-3.6-23-4-10.3-.6-20.5-1.1-30.7-1-.4,0-1.9.7-1.1.6Z" transform="translate(0.1 -7.7)"/></g><g id="70946962-7d23-4894-bd91-c69c2ab9a9ed" data-name="21"><path class="950d73f6-03a8-47f0-a64e-eaae164aae94" d="M100.7,73a5.4,5.4,0,0,0,5,1.6,111.7,111.7,0,0,0,11.6-1.7c.8-.2,1.3-1.2.2-1l-7.4,1.2c-2.5.4-5.9,1.5-7.9-.8-.4-.4-1.9.2-1.5.7Z" transform="translate(0.1 -7.7)"/></g><g id="f837c996-c06a-4d5c-a590-4bf82d3de158" data-name="20"><path class="950d73f6-03a8-47f0-a64e-eaae164aae94" d="M113.9,61c12.5-4.6,24.9-9.4,37.2-14.5,2.7-1.1.3-3.2-1.7-2.3-12.4,5-24.8,9.9-37.3,14.5-2.6,1-.3,3.1,1.8,2.3Z" transform="translate(0.1 -7.7)"/></g><g id="53ad022e-5a35-46e7-91ce-06d617243f20" data-name="19"><path class="950d73f6-03a8-47f0-a64e-eaae164aae94" d="M125.1,61.6a60.9,60.9,0,0,0,9.4-3.1c5.1-2.1,9.2-2,14.2-.3l.9-2.4a60.4,60.4,0,0,0-9,3.2c-3.2,1.2-7.6-.2-11-.7l-.4,2.5c4.2-1.3,9-4.4,13.5-2.4V56.8c1.2-1-.6-.7-1.5-.8a17.8,17.8,0,0,0-4,0c-1.7.3-2.7.8-3.4,2.4a1,1,0,0,0,.3,1.3c1.8,1.2,6.4.3,3.4-1.7-1.5-1.1-4.4-.8-6.2-.7s-4,1.1-5.8,1.1-2.6-1-3.8-1.1-4.1.7-6.1,1.5-1.6,2.2.1,2.4l5.3.5c1.8.2,4.3-2.4,1.5-2.7l-5.3-.5v2.4c2.6-1,1.8-.4,4.2.1s6.3-.9,9.4-1,8,3.7,10.6-.2a.9.9,0,0,0-.1-1c-1.2-2.3-6.9-1-.1.2a5,5,0,0,0,4.8-1.2c.4-.4.6-1.3-.1-1.6-6.2-2.8-11.4.3-17.4,2.2-1.5.4-2.6,2.2-.4,2.5s8,2,11.5,1.3,6.9-3.2,10.7-4c1.2-.3,2.6-1.9.9-2.5-3.7-1.3-7.6-2.5-11.6-1.8s-10,4-15.2,5.2c-2.5.6-1.8,3.1.7,2.5Z" transform="translate(0.1 -7.7)"/></g><g id="9be187f7-ee37-4851-9ffe-3c34159ac030" data-name="18"><path class="950d73f6-03a8-47f0-a64e-eaae164aae94" d="M110.8,59.4c-4.6-1.2-9.2-2.2-13.8-3.2-.6-.1-2,.8-1,.9,4.6,1,9.2,2,13.8,3.2.5.2,1.9-.6,1-.9Z" transform="translate(0.1 -7.7)"/></g><g id="b8dbb4aa-877b-433b-98a0-3ed3400b3284" data-name="17"><path class="950d73f6-03a8-47f0-a64e-eaae164aae94" d="M87.7,59.3c2.8-.6,5.5-1.3,8.3-2.1,1-.3.7-1.5-.3-1.2-2.8.8-5.5,1.5-8.3,2.1-1.1.2-.7,1.4.3,1.2Z" transform="translate(0.1 -7.7)"/></g><g id="6be05c40-d4e9-47d6-89a6-87dc984dd2d7" data-name="16"><path class="950d73f6-03a8-47f0-a64e-eaae164aae94" d="M94.6,59.1a9.1,9.1,0,0,0,4.8-1.3.4.4,0,0,0,.1-.7c-.3-.2-.9,0-1.1.1a6.2,6.2,0,0,1-3.2.9,1,1,0,0,0-1,.4c-.2.4.1.6.4.6Z" transform="translate(0.1 -7.7)"/></g><g id="254b1efc-8cb6-403f-9c45-547ad98315be" data-name="15"><path class="950d73f6-03a8-47f0-a64e-eaae164aae94" d="M99.3,60.4l3.9-1.7c.2-.1.7-.2.5-.5s-.9,0-1.1.1L98.7,60c-.2.1-.7.2-.5.5s.9,0,1.1-.1Z" transform="translate(0.1 -7.7)"/></g><g id="32d00135-09ef-490a-8b88-d51310c2acb1" data-name="14"><path class="950d73f6-03a8-47f0-a64e-eaae164aae94" d="M99.2,55.9c5.1-1.6,8.7,3.6,13.7,2.7,1-.1,1.3-1.4.2-1.2-3.1.5-5.5-1.6-8.2-2.6a9.1,9.1,0,0,0-6.1,0c-1,.3-.7,1.5.4,1.1Z" transform="translate(0.1 -7.7)"/></g><g id="1fbb0d22-8b6c-4599-8c06-d8f1d2755aa6" data-name="13"><path class="950d73f6-03a8-47f0-a64e-eaae164aae94" d="M103.1,54.3c4.9,1,9.9,1.7,14.9,2.3.7.1,1.7-.9.6-1-4.9-.6-9.7-1.3-14.6-2.2-.5-.1-1.9.8-.9.9Z" transform="translate(0.1 -7.7)"/></g><g id="9c206e2e-2502-4e27-8c4c-8e9b70821858" data-name="12"><path class="950d73f6-03a8-47f0-a64e-eaae164aae94" d="M107.3,53.8l13.8,1.9c.8.1,1.7-1.1.6-1.2l-13.9-1.9c-.8-.1-1.6,1.1-.5,1.2Z" transform="translate(0.1 -7.7)"/></g><g id="d9b87fe7-6b79-417c-996a-8f26b04acb80" data-name="11"><path class="950d73f6-03a8-47f0-a64e-eaae164aae94" d="M112.2,52.3a121.3,121.3,0,0,1,12.3,1.8c.5.1,1.9-.6,1-.8-4-.8-8.1-1.5-12.2-1.9-.5,0-2,.8-1.1.9Z" transform="translate(0.1 -7.7)"/></g><g id="2510ff95-3e2d-4c32-8c97-b4bb8292088d" data-name="10"><path class="950d73f6-03a8-47f0-a64e-eaae164aae94" d="M116.7,50.3a46,46,0,0,0,12.7,2.4c.4,0,1.9-.6,1.1-.6A44.6,44.6,0,0,1,118,49.7c-.3-.1-1.8.5-1.3.6Z" transform="translate(0.1 -7.7)"/></g><g id="8097b2f3-1731-421f-830e-614a4a620bd8" data-name="9"><path class="950d73f6-03a8-47f0-a64e-eaae164aae94" d="M121.1,49.8a89.3,89.3,0,0,1,11.4,1.6c.8.2,1.6-1,.5-1.2a71.1,71.1,0,0,0-11.4-1.6c-.8-.1-1.6,1.1-.5,1.2Z" transform="translate(0.1 -7.7)"/></g><g id="603b4758-8649-4fed-86e4-1f704cb5141b" data-name="8"><path class="950d73f6-03a8-47f0-a64e-eaae164aae94" d="M125.3,47.7,137,49.6c.4.1,1.8-.6,1.3-.6l-11.6-1.9c-.4-.1-1.8.5-1.4.6Z" transform="translate(0.1 -7.7)"/></g><g id="7a64e52b-0f3a-41fb-9d42-b4f13848e806" data-name="7"><path class="950d73f6-03a8-47f0-a64e-eaae164aae94" d="M130.1,46.8A40.8,40.8,0,0,0,141,48.6c.7,0,1.8-1,.6-1a37.3,37.3,0,0,1-10.5-1.8c-.6-.2-2,.7-1,1Z" transform="translate(0.1 -7.7)"/></g><g id="a67e0ea7-e365-484d-9875-a67b2f0583b2" data-name="6"><path class="950d73f6-03a8-47f0-a64e-eaae164aae94" d="M133.1,46.3q6.6,0,13.2.6c.7.1,1.7-1,.6-1.1-4.4-.4-8.8-.6-13.3-.6-.7,0-1.7,1.1-.5,1.1Z" transform="translate(0.1 -7.7)"/></g><g id="c20eddea-a385-4389-9ca2-e1a567d27a75" data-name="5"><path class="950d73f6-03a8-47f0-a64e-eaae164aae94" d="M136.3,44.7a53.5,53.5,0,0,1,11.3,1.1c.6.2,2-.8,1-1a54.5,54.5,0,0,0-12.1-1.1c-.9,0-1.3,1.1-.2,1Z" transform="translate(0.1 -7.7)"/></g><g id="40087150-75a2-4493-bbc1-51f67cf55e3c" data-name="4"><path class="950d73f6-03a8-47f0-a64e-eaae164aae94" d="M138.5,43.5a62.8,62.8,0,0,1,13,1c.8.1,1.7-1,.6-1.2a67.7,67.7,0,0,0-13.5-1c-.9,0-1.2,1.2-.1,1.2Z" transform="translate(0.1 -7.7)"/></g><g id="0b17ba3c-7d64-43d3-82df-8d3b586ab2cf" data-name="3"><path class="950d73f6-03a8-47f0-a64e-eaae164aae94" d="M146.7,47.8c2.5,1.8-.3,5.4.9,7.8.1.4,1.7-.1,1.6-.4-1.1-2.4,1.7-6.1-.9-8-.4-.2-1.8.4-1.6.6Z" transform="translate(0.1 -7.7)"/></g><g id="88a8fcc2-24f9-45a4-ad8c-bfcf27de767f" data-name="2"><path class="950d73f6-03a8-47f0-a64e-eaae164aae94" d="M147.9,49.9a7.8,7.8,0,0,1,2.2,2.6l.7-.5a6.9,6.9,0,0,0-3.8,2.3c-.3.4,1.3.2,1.5-.1a4.5,4.5,0,0,1,2.5-1.6c.1-.1.9-.3.8-.6a9.6,9.6,0,0,0-2.3-2.6c-.4-.3-1.9.3-1.6.5Z" transform="translate(0.1 -7.7)"/></g><g id="30bb42de-6edf-469b-a803-03ffc0452cb7" data-name="1"><path class="950d73f6-03a8-47f0-a64e-eaae164aae94" d="M137.4,52.2a17.3,17.3,0,0,1,1.4,4.4c.1.7,1.7.3,1.6-.4a12.9,12.9,0,0,0-1.5-4.7c-.3-.6-1.9,0-1.5.7Z" transform="translate(0.1 -7.7)"/></g><path class="950d73f6-03a8-47f0-a64e-eaae164aae94" d="M182.3,65.2h.2v.2c.1,0,.1.1.1.2h0V66h-.8a.1.1,0,0,1-.1-.1v-.2c.1,0,.1-.1.2-.3s.2-.2.2-.3H182c-.1.1-.1.1-.1,0h.3c0,.1,0,.1.1.1Zm.1.2-.2.3-.2.3h.5v-.2h-.1Z" transform="translate(0.1 -7.7)"/><path class="950d73f6-03a8-47f0-a64e-eaae164aae94" d="M183.2,65.3h.3a.1.1,0,0,0,.1.1h.1c0,.1-.1.1-.1.2h-.2a.1.1,0,0,1,.1-.1h-.3Z" transform="translate(0.1 -7.7)"/><path class="950d73f6-03a8-47f0-a64e-eaae164aae94" d="M184.3,65.7h-.2a.1.1,0,0,0-.1.1h0a.1.1,0,0,1,.1.1h.5c-.1,0-.1,0-.1.1h-.7V66h.4Zm0,.2Z" transform="translate(0.1 -7.7)"/><path class="950d73f6-03a8-47f0-a64e-eaae164aae94" d="M185.8,65.3h0l-.2.3h.2c-.1,0-.1.1-.2.2h-.1c-.1,0-.1,0-.1.1h-.1a.3.3,0,0,1-.1.2v.2H185v-.4h-.4c0-.1.1-.1.1-.2s.1-.1.1-.2h.1a.1.1,0,0,1-.1.1h.3c.1,0,.1-.1.3-.3S185.7,65.3,185.8,65.3Z" transform="translate(0.1 -7.7)"/><path class="950d73f6-03a8-47f0-a64e-eaae164aae94" d="M186.6,65.6h-.2l-.2.3h.2c.1,0,.1.1,0,.1v.2H186a.1.1,0,0,0-.1-.1h0a.3.3,0,0,1,.1-.2c0-.1.1-.1.1-.2l.2-.2h.1a.1.1,0,0,0,.1-.1Zm-.5,1Z" transform="translate(0.1 -7.7)"/><path class="950d73f6-03a8-47f0-a64e-eaae164aae94" d="M187.2,65.8h.4a.1.1,0,0,1-.1.1l-.2.2h.1a.1.1,0,0,1,.1-.1h-.3Z" transform="translate(0.1 -7.7)"/><path class="950d73f6-03a8-47f0-a64e-eaae164aae94" d="M188.8,65.4h0a.1.1,0,0,1-.1.1l-.2.3c0,.1-.1.1-.1.2h0c0,.1,0,.1-.1.1h0l-.2.5c-.2.2-.2.4-.3.5h-.2c.1,0,.1-.2.3-.6s.2-.4.1-.4a.1.1,0,0,1-.1-.1h.3a.3.3,0,0,1,.1-.2l.2-.3a.1.1,0,0,1,.1-.1Z" transform="translate(0.1 -7.7)"/><path class="950d73f6-03a8-47f0-a64e-eaae164aae94" d="M189.4,65.9h0a.1.1,0,0,1-.1.1h.6c.1-.1,0-.2,0-.3h0v.3h0a.1.1,0,0,0-.1.1h-.7v.4a.1.1,0,0,0-.1.1h-.4a.1.1,0,0,0-.1-.1v-.2a.3.3,0,0,1,.1-.2h.1c0-.1,0-.1.1-.1h0c0-.1.1-.1.1-.2h.3Zm-.4,1c-.1-.1-.1,0-.1,0h.1Z" transform="translate(0.1 -7.7)"/></svg>